<svg width="148" height="107" viewBox="0 0 148 107" fill="none" xmlns="http://www.w3.org/2000/svg">
<g clip-path="url(#clip0_43_360)">
<path d="M75.1664 0.988389C76.36 1.49777 77.5612 1.96573 78.7957 2.39352C78.9515 2.44754 79.1073 2.50157 79.2679 2.55723C79.5876 2.66768 79.9074 2.77791 80.2274 2.8879C94.7114 7.87656 94.7114 7.87656 96.9148 12.2362C98.0286 14.8109 97.4416 17.1548 96.2426 19.6418C96.0276 20.0287 95.8096 20.4145 95.5849 20.7972C95.7477 20.8528 95.9104 20.9084 96.0782 20.9657C96.5866 21.1483 97.0689 21.349 97.558 21.5674C97.675 21.4557 97.792 21.344 97.9125 21.2289C99.9612 19.3422 102.184 18.1241 105.204 18.017C109.997 18.1411 113.568 21.4437 116.679 24.2824C117.345 24.9063 117.958 25.5609 118.56 26.2326C119.14 26.8748 119.747 27.4944 120.358 28.1147C121.141 28.9111 121.91 29.7136 122.66 30.5338C123.53 31.4776 124.456 32.3679 125.404 33.2512C126.716 34.478 126.716 34.478 126.716 35.0588C126.69 35.214 126.664 35.3693 126.638 35.5292C126.61 35.7116 126.582 35.8939 126.554 36.0818C126.505 36.3858 126.505 36.3858 126.455 36.6959C126.136 38.8596 125.941 41.0185 125.782 43.1955C124.896 55.2285 124.896 55.2285 120.84 58.5876C118.774 60.0347 116.364 60.4342 113.781 60.2733C112.968 60.1703 112.175 60.0351 111.37 59.8882C111.225 60.5236 111.08 61.1591 110.931 61.8138C111.135 61.9116 111.339 62.0094 111.549 62.1102C114.189 63.3932 116.282 64.639 117.327 67.2786C118.737 72.7169 114.693 77.8275 111.589 82.2259C111.077 82.9347 110.556 83.6377 110.029 84.3379C109.157 85.5051 108.362 86.7086 107.577 87.9227C107.393 88.2078 107.206 88.4917 107.016 88.7743C106.795 89.1137 106.595 89.4638 106.398 89.8149C105.616 90.5802 104.767 90.5998 103.642 90.7469C100.835 91.1734 98.0957 91.7654 95.339 92.3906C83.1942 95.1434 83.1942 95.1434 78.4711 92.9253C78.1801 92.7654 77.8918 92.6015 77.6079 92.4319C77.4135 92.3207 77.2191 92.2095 77.0187 92.0949C75.152 90.4995 74.2201 88.3111 73.881 86.0772C73.881 85.823 73.881 85.5688 73.881 85.3069C73.6459 85.3427 73.4107 85.3784 73.1685 85.4152C72.4517 85.4887 72.1286 85.4799 71.4694 85.3069C71.4638 85.433 71.4581 85.5591 71.4523 85.6891C71.2769 88.1686 70.4141 90.2752 68.3933 92.0535C65.8803 93.937 62.5796 94.1187 59.4117 93.9724C55.6473 93.6842 51.9966 92.8451 48.3405 92.0468C47.7731 91.924 47.2056 91.8019 46.6381 91.6797C45.8372 91.5073 45.0363 91.3346 44.2359 91.1605C43.9964 91.1084 43.7569 91.0563 43.5102 91.0027C43.2779 90.9517 43.0457 90.9007 42.8065 90.8482C42.3072 90.7437 41.8057 90.6475 41.3028 90.5575C41.0476 90.5113 40.7924 90.465 40.5294 90.4173C40.2991 90.3779 40.0687 90.3386 39.8314 90.298C39.1539 90.0945 38.9357 89.8996 38.5522 89.3779C38.3803 89.0678 38.218 88.7535 38.0641 88.4361C37.8694 88.0842 37.6726 87.7332 37.474 87.383C37.3717 87.1998 37.2693 87.0166 37.1639 86.8279C36.5957 85.8756 35.9105 84.9945 35.2278 84.1034C26.9151 73.1034 26.9151 73.1034 27.9434 67.8443C28.6214 65.599 30.2992 63.8654 32.5529 62.7124C33.1707 62.4054 33.7932 62.1075 34.4193 61.8138C34.2746 61.2419 34.13 60.67 33.9809 60.0807C33.8322 60.0946 33.6836 60.1085 33.5304 60.1228C30.4456 60.3931 27.3861 60.439 24.7732 58.7328C20.2955 55.2785 20.1628 49.2989 19.7308 44.4828C19.7167 44.326 19.7026 44.1692 19.688 44.0076C19.5516 42.4873 19.419 40.9668 19.2927 39.4458C19.2731 39.2107 19.2731 39.2107 19.2532 38.9708C19.2282 38.6646 19.2041 38.3584 19.1809 38.0521C19.1288 37.376 19.0629 36.7105 18.9643 36.0379C18.7457 34.4818 18.7457 34.4818 19.0518 33.902C19.3531 33.5862 19.6612 33.3487 20.0323 33.0973C20.2789 32.9069 20.5247 32.7156 20.7696 32.5234C20.8919 32.4305 21.0141 32.3375 21.1401 32.2418C21.6443 31.8383 22.0612 31.3874 22.4849 30.9189C23.1969 30.133 23.9219 29.3604 24.6635 28.5961C25.4021 27.8341 26.1283 27.0654 26.8422 26.2853C27.9021 25.142 29.0331 24.0618 30.1856 22.9906C30.422 22.7705 30.656 22.5483 30.8894 22.3257C33.3137 20.0819 36.5848 18.1476 40.1742 18.029C43.1548 18.0771 45.3 19.4271 47.4782 21.083C47.7925 21.3749 47.7925 21.3749 47.7925 21.76C48.4436 21.3787 49.0947 20.9974 49.7655 20.6046C49.6757 20.4418 49.5858 20.2789 49.4932 20.1111C48.1613 17.6482 47.3366 15.2685 48.3542 12.5409C50.5262 8.03819 56.671 5.90614 61.5018 4.18332C61.6553 4.129 61.8087 4.07468 61.9669 4.01871C62.4532 3.8466 62.9387 3.67299 63.4241 3.49899C64.0637 3.26981 64.7034 3.04105 65.3433 2.81269C66.4471 2.41829 67.548 2.01774 68.6468 1.61273C68.8019 1.55613 68.957 1.49953 69.1168 1.44122C69.698 1.22669 70.2648 1.01637 70.815 0.74486C70.9625 0.672314 71.1101 0.599769 71.2622 0.525025C71.3916 0.457166 71.521 0.389306 71.6543 0.319389C72.9054 -0.016245 74.0599 0.504025 75.1664 0.988389Z" fill="#FEF400"/>
<path d="M89.6982 32.0796C92.4343 34.146 94.4031 36.6622 96.0234 39.4761C96.1313 39.663 96.2393 39.8499 96.3505 40.0425C96.6498 40.6166 96.8919 41.1878 97.1195 41.7869C97.1693 41.9178 97.2191 42.0487 97.2703 42.1835C98.7579 46.274 98.8663 51.1699 97.3387 55.2665C97.2918 55.3965 97.2448 55.5264 97.1964 55.6603C95.0399 61.4889 90.5814 66.1152 84.3648 68.9567C82.0627 69.9637 79.6736 70.5729 77.1695 71.057C77.0008 71.0908 76.8322 71.1247 76.6584 71.1596C70.2778 72.1408 63.5042 70.5523 58.2333 67.3448C54.2005 64.7751 51.3761 61.5382 49.3271 57.5773C49.2347 57.4009 49.1422 57.2244 49.047 57.0425C47.0678 52.9948 46.7225 47.158 48.2309 42.9423C48.2733 42.8231 48.3157 42.704 48.3594 42.5812C50.6048 36.445 55.3207 31.6252 61.839 28.6819C62.9006 28.2246 63.9898 27.8616 65.1117 27.537C65.3062 27.4801 65.5006 27.4233 65.7009 27.3647C74.0347 25.1534 83.1257 27.2771 89.6982 32.0796Z" fill="#0C0D0C"/>
<path d="M1.09616 81.0706C1.90771 81.2825 2.65222 81.554 3.4118 81.8769C12.0508 85.3381 22.2274 86.6819 31.5282 88.015C31.732 88.0443 31.9359 88.0736 32.1459 88.1039C32.7222 88.1861 33.2988 88.2668 33.8755 88.3467C34.045 88.3707 34.2145 88.3947 34.3891 88.4194C35.301 88.5428 36.1178 88.5806 37.0501 88.5806C37.0501 89.7245 37.0501 90.8683 37.0501 92.0468C38.1492 92.185 39.2484 92.323 40.3476 92.4607C41.1604 92.5625 41.9731 92.6649 42.7857 92.7681C47.5774 93.3744 52.3657 93.8838 57.192 94.2253C57.4103 94.2409 57.6287 94.2565 57.8536 94.2725C63.1237 94.6443 68.3752 94.7829 73.6617 94.7789C73.9499 94.7788 74.238 94.7786 74.5349 94.7785C84.37 94.7702 94.0983 94.1273 103.841 92.9448C104.165 92.9054 104.488 92.8662 104.812 92.8269C104.964 92.8085 105.116 92.7901 105.272 92.7711C106.499 92.6248 107.724 92.5189 108.958 92.432C108.958 91.161 108.958 89.8901 108.958 88.5806C109.898 88.7077 110.839 88.8348 111.808 88.9658C111.808 88.8387 111.808 88.7116 111.808 88.5806C112.044 88.5489 112.28 88.5171 112.524 88.4844C129.583 86.4826 129.583 86.4826 145.575 81.2691C146.008 81.0706 146.008 81.0706 146.447 81.0706C146.223 84.4758 143.716 87.1504 140.966 89.3509C140.749 89.478 140.532 89.6051 140.308 89.736C142.695 89.7822 144.964 89.6888 147.323 89.3509C146.404 92.0725 143.208 93.8042 140.514 95.1159C136.64 96.942 132.573 98.4055 128.279 99.2597C126.964 99.5419 126.177 99.8654 125.287 100.775C122.405 103.631 116.1 103.762 112.096 104.251C111.858 104.28 111.62 104.309 111.375 104.339C105.907 105.003 100.43 105.525 94.9272 105.912C94.5842 105.936 94.5842 105.936 94.2343 105.96C81.9695 106.808 69.3607 106.977 57.0854 106.14C56.5176 106.101 55.9497 106.065 55.3817 106.029C47.54 105.527 39.7166 104.774 31.953 103.673C31.7017 103.638 31.4505 103.603 31.1916 103.567C28.5123 103.166 25.5505 102.524 23.558 100.82C22.4758 99.9717 21.323 99.7287 19.9364 99.4366C19.4455 99.3245 18.9548 99.2119 18.4643 99.0988C18.2289 99.0457 17.9935 98.9925 17.751 98.9378C16.4139 98.6274 15.1116 98.2379 13.8116 97.8238C13.5533 97.7419 13.295 97.66 13.0289 97.5756C10.7048 96.7998 8.52739 95.8054 6.35772 94.7428C6.12655 94.6298 5.89538 94.5169 5.6572 94.4005C4.47383 93.7808 3.44534 93.0475 2.42525 92.2394C2.30589 92.1457 2.18653 92.0521 2.06354 91.9555C1.24632 91.2843 0.719442 90.6169 0.219238 89.736C0.219238 89.609 0.219238 89.4819 0.219238 89.3509C0.413387 89.3787 0.607535 89.4065 0.807566 89.4352C2.96527 89.7192 5.0551 89.7782 7.23464 89.736C7.02778 89.5785 7.02778 89.5785 6.81673 89.4179C4.06579 87.289 1.96017 85.0375 1.09616 81.8408C1.09616 81.5866 1.09616 81.3324 1.09616 81.0706ZM109.396 88.9658C109.396 90.0461 109.396 91.1264 109.396 92.2394C111.42 92.1172 113.373 91.8065 115.357 91.4571C115.673 91.4022 115.99 91.3474 116.306 91.2928C117.072 91.1601 117.838 91.0262 118.604 90.8914C116.71 89.7821 114.662 89.5391 112.438 89.3028C112.142 89.2694 111.846 89.2358 111.549 89.202C110.832 89.121 110.114 89.0431 109.396 88.9658ZM29.1578 90.6989C29.1578 90.7624 29.1578 90.826 29.1578 90.8914C29.2979 90.9128 29.438 90.9341 29.5824 90.956C30.231 91.0548 30.8796 91.1536 31.5282 91.2525C31.8587 91.3028 31.8587 91.3028 32.1958 91.3541C33.6691 91.5788 35.1407 91.8104 36.6116 92.0468C36.6116 91.0301 36.6116 90.0133 36.6116 88.9658C33.9966 88.9658 31.4625 89.6784 29.1578 90.6989Z" fill="#211C19"/>
<path d="M69.4963 17.1384C71.4826 17.2215 72.8939 17.723 74.2783 19.0039C75.7781 20.646 75.9866 22.2002 75.854 24.2634C75.9987 24.2634 76.1434 24.2634 76.2925 24.2634C76.3332 23.9119 76.3332 23.9119 76.3747 23.5533C76.5409 22.4195 76.8676 21.7782 77.8271 20.9898C78.262 20.2258 78.1684 19.3167 78.0464 18.4864C77.7438 17.9437 77.4127 17.5954 76.9502 17.1384C78.8648 17.5472 80.2119 18.3584 81.3074 19.8103C82.0704 21.1033 82.0867 22.643 82.2118 24.0708C82.3064 23.9159 82.4011 23.761 82.4986 23.6014C82.8694 23.108 82.8694 23.108 83.5408 22.9154C84.2268 22.7819 84.2268 22.7819 84.4726 22.2535C84.5223 22.0906 84.5721 21.9278 84.6233 21.76C84.6956 21.5694 84.768 21.3787 84.8425 21.1823C84.9553 19.9736 84.8273 19.4325 83.9656 18.4864C85.565 18.9121 86.5381 19.8244 87.35 21.074C88.1577 22.5817 88.2445 24.3936 87.6925 25.9965C87.8056 25.9131 87.9186 25.8297 88.0351 25.7437C88.5695 25.4188 88.5695 25.4188 89.3368 25.154C90.1615 24.8177 90.4912 24.5402 90.981 23.8783C91.2922 23.0583 91.3595 22.2936 90.981 21.4832C90.9087 21.3839 90.8363 21.2846 90.7618 21.1823C91.9705 21.6056 92.5273 22.5469 93.1733 23.4931C93.9389 25.1597 93.7031 26.5565 92.9909 28.196C92.7262 28.7092 92.4179 29.1784 92.0772 29.6552C92.2173 29.5718 92.3575 29.4884 92.5019 29.4025C93.0726 29.1263 93.5301 28.9727 94.1462 28.8128C95.1339 28.539 95.722 28.1706 96.4618 27.537C96.7648 27.0047 96.7019 26.5653 96.6947 25.9724C96.6918 25.6559 96.6918 25.6559 96.6887 25.333C96.6862 25.1707 96.6836 25.0083 96.681 24.8411C97.8375 25.7471 98.3629 26.474 98.5051 27.8131C98.5807 30.0124 98.1301 31.4932 96.4618 33.1214C96.4618 33.2485 96.4618 33.3756 96.4618 33.5066C96.5974 33.4152 96.7331 33.3239 96.8729 33.2298C97.552 32.9315 97.9014 32.8838 98.6404 32.8446C99.667 32.7774 100.273 32.5749 101.066 31.966C101.638 31.2959 101.631 30.4663 101.723 29.6552C102.467 30.1602 102.671 30.7962 102.82 31.5809C103.061 33.6466 102.469 35.0935 101.011 36.708C100.739 36.9908 100.466 37.2723 100.189 37.5505C102.41 37.9016 102.41 37.9016 104.469 37.2594C105.09 36.7092 105.262 35.9784 105.45 35.2397C105.595 35.3032 105.74 35.3668 105.889 35.4322C106.008 37.796 105.925 39.4894 104.03 41.3183C103.597 41.6765 103.122 41.9235 102.6 42.1721C102.528 42.2992 102.456 42.4263 102.381 42.5572C103.503 43.1826 104.336 43.4415 105.661 43.2395C106.812 42.9703 107.393 42.4229 108.081 41.5944C108.2 43.2111 107.842 44.5779 106.711 45.891C105.372 47.0399 103.961 47.5506 102.162 47.9491C102.397 47.965 102.632 47.9808 102.874 47.9972C103.776 48.1556 103.987 48.3234 104.573 48.9119C105.464 49.1728 106.272 49.208 107.204 49.1045C107.989 48.7345 108.56 48.3095 109.177 47.7565C108.814 49.6093 108.102 50.8068 106.467 52.0321C105.114 52.8418 103.539 53.127 101.943 53.3409C102.288 53.4541 102.288 53.4541 102.641 53.5696C103.461 53.8743 103.969 54.3054 104.573 54.8815C105.333 55.215 106.155 55.1672 106.985 55.074C107.731 54.7285 107.731 54.7285 108.3 54.3038C108.445 54.2402 108.59 54.1767 108.739 54.1112C108.376 55.4936 107.36 56.5685 106.135 57.457C104.227 58.3286 102.372 58.6587 100.257 58.1551C100.09 58.0915 99.9226 58.028 99.7503 57.9625C99.7503 58.0896 99.7503 58.2167 99.7503 58.3477C99.9537 58.3993 100.157 58.4509 100.367 58.5041C101.272 58.8002 101.565 59.058 102.025 59.7919C102.459 60.3792 102.739 60.583 103.477 60.851C104.743 61.001 105.661 60.8706 106.766 60.2733C106.286 61.5463 105.21 62.2861 103.958 63.0039C102.243 63.7084 99.6416 63.5785 97.8868 63.0655C97.6336 62.9702 97.3804 62.8749 97.1195 62.7767C97.2226 62.8445 97.3258 62.9122 97.4321 62.982C98.4231 63.6723 98.8462 64.2284 99.3118 65.28C99.7359 65.7091 100.051 65.99 100.627 66.2429C100.946 66.2613 101.266 66.2679 101.586 66.267C101.755 66.2674 101.924 66.2679 102.098 66.2685C102.586 66.2436 103.009 66.1685 103.477 66.0503C103.477 66.1774 103.477 66.3045 103.477 66.4354C103.044 66.7544 103.044 66.7544 102.463 67.1094C102.275 67.2266 102.087 67.3438 101.893 67.4645C100.305 68.2974 98.7059 68.3149 96.9003 68.1685C96.1225 67.9795 95.4247 67.7213 94.7079 67.3983C94.5435 67.3263 94.379 67.2543 94.2095 67.1801C94.0846 67.125 93.9597 67.0699 93.831 67.0131C93.9667 67.1323 94.1023 67.2514 94.2421 67.3742C94.7064 67.974 94.7922 68.2459 94.9135 68.9388C95.0854 69.8516 95.3905 70.2844 96.2426 70.8645C96.746 71.0856 97.1364 71.1163 97.695 71.1654C97.8741 71.1815 98.0533 71.1976 98.2379 71.2143C98.3753 71.2259 98.5126 71.2376 98.6541 71.2496C97.7463 72.1071 96.7703 72.357 95.4735 72.475C93.1245 72.5479 91.6433 72.1198 89.8574 70.8043C89.6495 70.6335 89.4415 70.4627 89.2272 70.2868C89.2978 70.424 89.3685 70.5613 89.4413 70.7028C89.672 71.2652 89.7229 71.7024 89.7478 72.2967C89.8471 73.4334 90.2401 74.065 91.1591 74.8723C91.8141 75.1846 92.4379 75.2314 93.1733 75.2935C92.358 76.0097 91.2565 76.0929 90.1452 76.136C87.4071 76.0704 85.7922 74.5943 83.9656 72.9827C84.0063 73.2329 84.047 73.4831 84.0889 73.7409C84.1583 74.1674 84.1583 74.1674 84.1848 74.5232C84.1125 74.5868 84.0401 74.6503 83.9656 74.7158C83.8341 75.848 84.1181 76.6785 84.8425 77.6043C85.5414 78.0135 85.9968 78.0861 86.8156 78.182C86.8156 78.3091 86.8156 78.4362 86.8156 78.5671C82.6981 78.7151 82.6981 78.7151 81.3348 77.7969C81.2037 77.7197 81.0726 77.6425 80.9375 77.5629C79.5667 76.6677 78.6032 75.2218 78.2656 73.753C78.2732 73.8969 78.2808 74.0409 78.2887 74.1893C78.2946 74.3789 78.3006 74.5686 78.3067 74.7639C78.3143 74.9516 78.322 75.1393 78.3298 75.3326C78.2555 75.9557 78.0415 76.1605 77.6079 76.6415C77.4058 77.5211 77.5233 78.2202 77.9641 79.0245C78.5301 79.574 79.0241 79.8288 79.8002 80.1077C79.8002 80.1712 79.8002 80.2348 79.8002 80.3002C77.7629 80.4716 76.5156 79.9303 74.8127 79.0124C73.5841 77.9034 72.8837 76.6098 72.5656 75.1009C72.4932 75.1009 72.4209 75.1009 72.3463 75.1009C72.2921 75.2717 72.2378 75.4425 72.1819 75.6185C71.9079 76.2563 71.9079 76.2563 71.442 76.6776C70.804 77.5182 70.8896 78.356 71.031 79.3374C71.3514 79.9808 71.7563 80.409 72.3463 80.8779C70.5903 80.8123 69.2979 80.0137 68.1124 78.9041C66.9419 77.6074 66.5461 76.144 66.4271 74.5232C66.2824 74.5232 66.1377 74.5232 65.9886 74.5232C65.9751 74.6662 65.9615 74.8092 65.9475 74.9565C65.7149 75.6481 65.3174 75.8285 64.6732 76.2563C64.1063 77.0613 64.1074 77.8386 64.2348 78.7597C64.5193 79.3163 64.5193 79.3163 64.8925 79.7225C64.9648 79.8496 65.0372 79.9767 65.1117 80.1077C63.5335 79.7958 62.4873 78.8784 61.5218 77.7848C60.8571 76.7294 60.6533 75.7411 60.5901 74.5473C60.5816 74.4148 60.5731 74.2822 60.5644 74.1456C60.5439 73.8223 60.5257 73.4988 60.5078 73.1753C60.3632 73.1753 60.2185 73.1753 60.0694 73.1753C60.0694 73.3024 60.0694 73.4295 60.0694 73.5604C59.7089 73.7748 59.7089 73.7748 59.2336 74.0057C58.4561 74.4227 57.9794 74.7092 57.6578 75.4861C57.5345 76.4593 57.5763 77.2971 58.0963 78.182C56.4663 77.3639 55.4323 76.1804 54.9106 74.5902C54.5613 73.0536 54.8726 71.7439 55.4655 70.2868C55.2786 70.4227 55.2786 70.4227 55.0879 70.5613C54.5765 70.8718 54.2147 70.9719 53.6158 71.0931C52.6015 71.3725 52.1897 71.7723 51.6949 72.5863C51.3397 73.3884 51.4569 74.1043 51.7386 74.9084C50.4733 74.2415 49.9619 73.2198 49.5463 72.0199C49.2655 70.2468 49.5516 68.6291 50.7743 67.1726C51.0822 66.8522 51.4087 66.5458 51.7386 66.2429C51.2588 66.4436 50.8839 66.6099 50.4917 66.9289C49.9336 67.2336 49.6689 67.2448 49.0256 67.2779C47.9138 67.3568 47.4615 67.6561 46.6963 68.3611C46.0903 69.0627 46.2257 69.8262 46.2578 70.6719C45.2599 69.8813 45.0144 68.9053 44.8628 67.7586C44.7764 65.9217 45.3509 64.666 46.6278 63.234C46.7951 63.0831 46.9624 62.9322 47.1347 62.7767C47.2794 62.7767 47.4241 62.7767 47.5732 62.7767C47.5732 62.586 47.5732 62.3954 47.5732 62.199C47.4573 62.261 47.3415 62.3231 47.2221 62.387C46.5623 62.6343 46.0142 62.6373 45.2987 62.6563C44.0876 62.7244 43.4153 62.8121 42.5309 63.547C42.0065 64.183 41.974 64.8981 41.8732 65.6652C40.9877 64.8874 41.137 63.7981 41.1311 62.7492C41.1716 61.1581 41.8525 60.0713 43.079 58.9374C43.6552 58.4677 44.2402 58.0877 44.9424 57.77C44.7073 57.7779 44.4722 57.7858 44.2299 57.794C43.4078 57.77 43.4078 57.77 42.9788 57.5736C42.1841 57.2386 41.3955 57.4221 40.5578 57.5774C39.8748 57.7991 39.571 57.9583 39.2501 58.5357C39.0838 58.9168 38.9421 59.306 38.8039 59.6956C38.6592 59.6956 38.5146 59.6956 38.3655 59.6956C38.2345 57.6273 38.4537 56.2612 39.9549 54.6408C41.7412 52.9541 43.7132 52.5292 46.2578 52.3781C46.0672 52.3826 46.0672 52.3826 45.8727 52.3873C45.2932 52.3993 44.7136 52.4068 44.134 52.4142C43.9341 52.419 43.7341 52.4239 43.5281 52.4289C42.3933 52.4397 41.7271 52.3934 40.777 51.8004C39.756 51.6273 38.9858 51.7176 38.064 52.1374C37.5575 52.5187 37.2162 52.8698 36.8309 53.3409C36.8377 51.7381 37.1726 50.7108 38.3655 49.4896C38.4822 49.3665 38.5989 49.2434 38.7192 49.1165C40.049 47.9147 41.8371 47.5929 43.627 47.1788C43.212 47.146 43.212 47.146 42.7886 47.1126C41.8044 47.0349 41.4268 46.6757 40.777 46.0234C39.7271 45.716 38.7666 45.6707 37.7626 46.0715C37.263 46.4128 36.8235 46.7721 36.3924 47.1788C36.4719 45.8518 37.2759 44.6733 38.3269 43.7442C40.0633 42.5253 41.8581 42.0236 44.0655 42.1721C44.0655 42.045 44.0655 41.9179 44.0655 41.7869C43.9338 41.7688 43.8021 41.7507 43.6664 41.732C43.0798 41.563 42.9202 41.3644 42.5583 40.9324C41.7888 40.1037 41.1103 39.9232 39.9138 39.7891C39.0061 39.8867 38.4754 40.2 37.7078 40.6315C38.1454 39.2648 39.337 38.2483 40.7085 37.5625C42.5926 36.6954 44.6492 36.8939 46.6963 37.1653C46.5018 37.07 46.3074 36.9747 46.1071 36.8765C45.4936 36.5244 45.1921 36.1709 44.8328 35.6128C44.3354 34.8679 43.9353 34.543 42.9693 34.2768C41.9382 34.1681 41.0569 34.2502 40.1193 34.662C41.2624 33.3422 42.6185 32.3304 44.504 31.966C46.3492 31.7796 47.9014 32.2065 49.5463 32.9289C49.2938 32.4536 49.0973 32.1494 48.6694 31.7735C48.6151 31.5312 48.5608 31.2889 48.5049 31.0393C48.3107 30.3232 48.0199 29.8922 47.3206 29.4439C46.2823 28.9985 45.1581 28.9878 44.0655 29.2701C45.1664 28.1097 46.448 27.6294 48.1504 27.4558C50.4793 27.3814 51.9709 27.8352 53.7391 29.1377C53.9471 29.3085 54.1551 29.4793 54.3694 29.6552C54.2545 29.5186 54.2545 29.5186 54.1373 29.3792C53.5735 28.6595 53.2171 28.119 53.1636 27.2361C53.0984 26.2905 52.698 25.7108 51.9578 25.0337C51.2361 24.5688 50.4216 24.5447 49.5463 24.456C50.7511 23.5605 51.9837 23.4015 53.5216 23.4344C55.5301 23.6219 56.9512 24.5427 58.3155 25.8039C58.3879 25.931 58.4602 26.0581 58.5348 26.1891C58.6795 26.1891 58.8242 26.1891 58.9732 26.1891C58.9006 26.0853 58.828 25.9815 58.7531 25.8746C58.4819 25.3084 58.5139 24.8988 58.5485 24.2875C58.5697 23.1942 58.3995 22.5044 57.5893 21.6487C57.1312 21.3096 56.777 21.2431 56.1917 21.1462C55.9259 21.1004 55.9259 21.1004 55.6548 21.0537C55.52 21.0326 55.3852 21.0115 55.2463 20.9898C55.9769 20.348 56.6948 20.3714 57.6852 20.3519C59.0475 20.3625 60.003 20.5696 61.1655 21.1823C61.3051 21.2543 61.4448 21.3263 61.5886 21.4005C62.5785 21.964 63.1743 22.6157 63.7963 23.4931C63.7963 23.6202 63.7963 23.7473 63.7963 23.8783C63.941 23.8783 64.0857 23.8783 64.2348 23.8783C64.2257 23.6717 64.2167 23.4652 64.2074 23.2524C64.2348 22.5303 64.2348 22.5303 64.4566 22.1527C64.8439 21.4508 64.6772 20.7615 64.454 20.0269C64.0185 19.3032 63.4999 18.9233 62.6317 18.6067C62.4372 18.567 62.2428 18.5273 62.0425 18.4864C62.0425 18.4228 62.0425 18.3593 62.0425 18.2938C64.2742 18.2043 65.9251 18.2892 67.6877 19.5696C68.8154 20.5082 69.6045 21.5737 69.9348 22.9154C69.9936 22.7446 70.0524 22.5739 70.1129 22.3979C70.3733 21.76 70.3733 21.76 70.7295 21.3388C71.2084 20.4783 71.1502 19.6188 71.031 18.679C70.6826 17.9445 70.2491 17.5716 69.4963 17.1384ZM53.471 34.3468C48.5288 39.3589 47.2732 45.1654 47.5732 51.6078C47.6807 52.663 47.9162 53.6657 48.2309 54.6889C48.2758 54.8547 48.3208 55.0205 48.3671 55.1914C49.5058 58.9935 51.9456 62.1163 55.0271 64.8949C55.1491 65.0163 55.2712 65.1377 55.397 65.2627C58.3525 68.1224 63.0686 70.0559 67.304 70.8645C67.4741 70.8981 67.6441 70.9317 67.8193 70.9663C74.4734 72.1715 81.3456 70.8509 86.9946 67.6232C93.0053 63.9357 96.7316 58.7068 98.1182 52.4019C98.8808 47.6933 98.0803 42.9219 95.5849 38.7059C95.4782 38.5251 95.4782 38.5251 95.3693 38.3408C92.3151 33.2962 87.0062 29.3748 80.7953 27.6378C70.7303 24.9922 60.5223 27.5006 53.471 34.3468Z" fill="#F8E900"/>
<path d="M72.8944 33.4343C73.1428 33.432 73.3912 33.4298 73.6472 33.4275C75.9775 33.4345 78.1117 33.854 80.2387 34.6859C80.3864 34.7436 80.5341 34.8012 80.6862 34.8606C85.155 36.6827 88.0822 40.0199 89.8429 43.9502C91.33 48.0787 90.7761 52.6167 88.5685 56.4559C88.0148 57.3465 87.327 58.1426 86.5964 58.9252C86.4257 59.1141 86.255 59.3031 86.0791 59.4977C83.4728 62.222 79.2262 64.125 75.2169 64.4775C70.0803 64.8374 65.4146 63.7879 61.3848 60.8509C57.8254 58.0728 55.5133 54.4368 55.2158 50.2116C54.9882 45.4844 56.5587 41.6728 60.072 38.0596C63.3942 34.9257 68.0821 33.391 72.8944 33.4343Z" fill="#063393"/>
<path d="M75.1664 0.988389C76.36 1.49777 77.5612 1.96573 78.7957 2.39352C78.9515 2.44754 79.1073 2.50157 79.2679 2.55723C79.5876 2.66768 79.9074 2.77791 80.2274 2.8879C94.7114 7.87656 94.7114 7.87656 96.9148 12.2362C98.0286 14.8109 97.4416 17.1548 96.2426 19.6418C96.0276 20.0287 95.8096 20.4145 95.5849 20.7972C95.7477 20.8528 95.9104 20.9084 96.0782 20.9657C96.5866 21.1483 97.0689 21.349 97.558 21.5674C97.675 21.4557 97.792 21.344 97.9125 21.2289C99.9612 19.3422 102.184 18.1241 105.204 18.017C109.997 18.1411 113.568 21.4437 116.679 24.2824C117.345 24.9063 117.958 25.5609 118.56 26.2326C119.14 26.8748 119.747 27.4944 120.358 28.1147C121.141 28.9111 121.91 29.7136 122.66 30.5338C123.53 31.4776 124.456 32.3679 125.404 33.2512C126.716 34.478 126.716 34.478 126.716 35.0588C126.69 35.214 126.664 35.3693 126.638 35.5292C126.61 35.7116 126.582 35.8939 126.554 36.0818C126.505 36.3858 126.505 36.3858 126.455 36.6959C126.136 38.8596 125.941 41.0185 125.782 43.1955C124.896 55.2285 124.896 55.2285 120.84 58.5876C118.774 60.0347 116.364 60.4342 113.781 60.2733C112.968 60.1703 112.175 60.0351 111.37 59.8882C111.225 60.5236 111.08 61.1591 110.931 61.8138C111.135 61.9116 111.339 62.0094 111.549 62.1102C114.189 63.3932 116.282 64.639 117.327 67.2786C118.737 72.7169 114.693 77.8275 111.589 82.2259C111.077 82.9347 110.556 83.6377 110.029 84.3379C109.157 85.5051 108.362 86.7086 107.577 87.9227C107.393 88.2078 107.206 88.4917 107.016 88.7743C106.795 89.1137 106.595 89.4638 106.398 89.8149C105.616 90.5802 104.767 90.5998 103.642 90.7469C100.835 91.1734 98.0957 91.7654 95.339 92.3906C83.1942 95.1434 83.1942 95.1434 78.4711 92.9253C78.1801 92.7654 77.8918 92.6015 77.6079 92.4319C77.4135 92.3207 77.2191 92.2095 77.0187 92.0949C75.152 90.4995 74.2201 88.3111 73.881 86.0772C73.881 85.823 73.881 85.5688 73.881 85.3069C73.6459 85.3427 73.4107 85.3784 73.1685 85.4152C72.4517 85.4887 72.1286 85.4799 71.4694 85.3069C71.4638 85.433 71.4581 85.5591 71.4523 85.6891C71.2769 88.1686 70.4141 90.2752 68.3933 92.0535C65.8803 93.937 62.5796 94.1187 59.4117 93.9724C55.6473 93.6842 51.9966 92.8451 48.3405 92.0468C47.7731 91.924 47.2056 91.8019 46.6381 91.6797C45.8372 91.5073 45.0363 91.3346 44.2359 91.1605C43.9964 91.1084 43.7569 91.0563 43.5102 91.0027C43.2779 90.9517 43.0457 90.9007 42.8065 90.8482C42.3072 90.7437 41.8057 90.6475 41.3028 90.5575C41.0476 90.5113 40.7924 90.465 40.5294 90.4173C40.2991 90.3779 40.0687 90.3386 39.8314 90.298C39.1539 90.0945 38.9357 89.8996 38.5522 89.3779C38.3803 89.0678 38.218 88.7535 38.0641 88.4361C37.8694 88.0842 37.6726 87.7332 37.474 87.383C37.3717 87.1998 37.2693 87.0166 37.1639 86.8279C36.5957 85.8756 35.9105 84.9945 35.2278 84.1034C26.9151 73.1034 26.9151 73.1034 27.9434 67.8443C28.6214 65.599 30.2992 63.8654 32.5529 62.7124C33.1707 62.4054 33.7932 62.1075 34.4193 61.8138C34.2746 61.2419 34.13 60.67 33.9809 60.0807C33.8322 60.0946 33.6836 60.1085 33.5304 60.1228C30.4456 60.3931 27.3861 60.439 24.7732 58.7328C20.2955 55.2785 20.1628 49.2989 19.7308 44.4828C19.7167 44.326 19.7026 44.1692 19.688 44.0076C19.5516 42.4873 19.419 40.9668 19.2927 39.4458C19.2731 39.2107 19.2731 39.2107 19.2532 38.9708C19.2282 38.6646 19.2041 38.3584 19.1809 38.0521C19.1288 37.376 19.0629 36.7105 18.9643 36.0379C18.7457 34.4818 18.7457 34.4818 19.0518 33.902C19.3531 33.5862 19.6612 33.3487 20.0323 33.0973C20.2789 32.9069 20.5247 32.7156 20.7696 32.5234C20.8919 32.4305 21.0141 32.3375 21.1401 32.2418C21.6443 31.8383 22.0612 31.3874 22.4849 30.9189C23.1969 30.133 23.9219 29.3604 24.6635 28.5961C25.4021 27.8341 26.1283 27.0654 26.8422 26.2853C27.9021 25.142 29.0331 24.0618 30.1856 22.9906C30.422 22.7705 30.656 22.5483 30.8894 22.3257C33.3137 20.0819 36.5848 18.1476 40.1742 18.029C43.1548 18.0771 45.3 19.4271 47.4782 21.083C47.7925 21.3749 47.7925 21.3749 47.7925 21.76C48.4436 21.3787 49.0947 20.9974 49.7655 20.6046C49.6757 20.4418 49.5858 20.2789 49.4932 20.1111C48.1613 17.6482 47.3366 15.2685 48.3542 12.5409C50.5262 8.03819 56.671 5.90614 61.5018 4.18332C61.6553 4.129 61.8087 4.07468 61.9669 4.01871C62.4532 3.8466 62.9387 3.67299 63.4241 3.49899C64.0637 3.26981 64.7034 3.04105 65.3433 2.81269C66.4471 2.41829 67.548 2.01774 68.6468 1.61273C68.8019 1.55613 68.957 1.49953 69.1168 1.44122C69.698 1.22669 70.2648 1.01637 70.815 0.74486C70.9625 0.672314 71.1101 0.599769 71.2622 0.525025C71.3916 0.457166 71.521 0.389306 71.6543 0.319389C72.9054 -0.016245 74.0599 0.504025 75.1664 0.988389ZM70.5925 1.85343C68.6443 2.64572 66.6648 3.34963 64.6677 4.03905C55.5991 6.87447 55.5991 6.87447 49.292 12.8395C48.4386 14.9139 48.9514 16.8951 49.9577 18.8619C50.3819 19.6463 50.8347 20.4163 51.3002 21.1823C51.1023 21.2314 50.9045 21.2806 50.7007 21.3312C49.9789 21.5693 49.6036 21.8028 49.053 22.2655C48.2739 22.9154 48.2739 22.9154 47.7925 22.9154C47.4679 22.619 47.4679 22.619 47.0937 22.2173C45.5318 20.6206 43.6577 19.1593 41.1633 18.9648C39.4193 18.8972 37.9024 19.0175 36.3924 19.8343C36.2234 19.9115 36.0544 19.9887 35.8803 20.0683C34.2216 20.8611 32.9113 21.9616 31.5693 23.108C31.4567 23.203 31.344 23.298 31.228 23.3959C29.8854 24.5303 28.6406 25.6934 27.4793 26.9758C26.8852 27.6246 26.2697 28.255 25.6501 28.885C24.7096 29.8423 23.7882 30.8095 22.8979 31.8035C22.3616 32.3511 22.3616 32.3511 21.7338 32.8359C20.3482 33.9327 20.3482 33.9327 19.8095 35.4477C19.8123 36.3507 19.956 37.2359 20.1008 38.1281C20.1437 38.4536 20.1852 38.7791 20.2254 39.1048C20.307 39.7575 20.3945 40.4093 20.4865 41.0609C20.6609 42.3309 20.742 43.6032 20.827 44.88C21.3183 52.0533 21.3183 52.0533 25.412 58.0287C26.9228 59.0824 28.3706 59.348 30.2676 59.3466C30.4325 59.3467 30.5974 59.3468 30.7673 59.3469C32.0915 59.336 33.3493 59.1993 34.6386 58.9253C34.6759 59.0626 34.7132 59.1999 34.7516 59.3413C35.0787 60.4769 35.4503 61.4063 36.1732 62.3915C36.0209 62.4109 35.8685 62.4302 35.7116 62.4502C33.276 62.9641 31.0394 64.4213 29.7196 66.2669C28.6454 67.8762 28.6865 69.9441 29.0893 71.743C29.1773 72.0298 29.2739 72.3147 29.377 72.5975C29.4392 72.7691 29.5014 72.9406 29.5654 73.1173C30.8901 76.41 33.0188 79.413 35.1689 82.33C35.6617 83.0034 36.1447 83.682 36.6252 84.3622C36.8701 84.7086 37.1167 85.0541 37.365 85.3986C37.8975 86.1441 38.3979 86.8731 38.7963 87.6817C39.373 88.8976 39.373 88.8976 40.5065 89.6945C41.4924 89.9326 42.4968 89.9921 43.5123 90.0656C44.4672 90.1614 45.3846 90.3765 46.3126 90.5905C46.499 90.6323 46.6854 90.6742 46.8774 90.7173C47.9017 90.9496 48.9166 91.2022 49.93 91.4691C51.345 91.832 52.7763 92.1057 54.2187 92.3717C54.4411 92.413 54.6636 92.4544 54.8929 92.497C56.9659 92.8711 58.954 93.0443 61.0697 93.0457C61.2656 93.0481 61.4616 93.0504 61.6635 93.0528C64.0635 93.0575 66.3256 92.5045 68.1399 91.0599C69.9534 89.317 70.6681 86.6545 70.5925 84.3441C70.7621 84.3602 70.9316 84.3764 71.1063 84.393C72.4481 84.5082 73.648 84.5462 74.9771 84.3441C74.9581 84.5198 74.9581 84.5198 74.9386 84.6991C74.8174 86.7679 75.4514 89.1805 77.0273 90.7755C79.0921 92.5376 81.3574 93.154 84.2123 93.1179C84.588 93.1139 84.588 93.1139 84.9714 93.1098C87.6475 93.0469 90.1421 92.601 92.7349 92.0468C93.1539 91.958 93.5729 91.8693 93.9919 91.7806C96.5823 91.2312 99.1705 90.6746 101.756 90.1073C101.953 90.0641 102.151 90.021 102.354 89.9765C102.542 89.935 102.73 89.8936 102.924 89.8508C103.294 89.7739 103.667 89.7046 104.041 89.6427C104.217 89.6135 104.393 89.5842 104.574 89.5541C104.729 89.5309 104.884 89.5076 105.044 89.4836C105.88 89.2103 106.165 88.4702 106.519 87.7983C106.703 87.4798 106.888 87.1619 107.075 86.8445C107.215 86.6026 107.215 86.6026 107.358 86.3559C107.793 85.6366 108.294 84.9617 108.807 84.2839C109.01 84.0135 109.212 83.7429 109.414 83.4723C109.517 83.3336 109.621 83.1948 109.727 83.0519C114.585 76.7328 114.585 76.7328 116.48 69.4563C116.487 69.299 116.493 69.1418 116.5 68.9798C116.521 67.1954 115.65 66.0184 114.293 64.7362C112.862 63.5656 111.267 62.8494 109.396 62.3915C109.488 62.2374 109.488 62.2374 109.581 62.0801C110.201 60.9599 110.434 59.9739 110.493 58.7328C110.626 58.7745 110.759 58.8162 110.897 58.8591C113.391 59.555 116.387 59.6871 118.823 58.7328C121.762 57.221 122.829 54.5752 123.662 51.8267C124.2 49.8266 124.417 47.8065 124.587 45.7608C124.611 45.4824 124.635 45.204 124.659 44.9256C124.708 44.3468 124.757 43.7679 124.806 43.189C124.867 42.45 124.931 41.7111 124.994 40.9722C125.044 40.3991 125.092 39.826 125.141 39.2529C125.164 38.9804 125.187 38.708 125.211 38.4355C125.243 38.0547 125.275 37.6738 125.307 37.293C125.325 37.0771 125.343 36.8613 125.362 36.639C125.519 35.2609 125.519 35.2609 124.894 34.0572C124.669 33.8545 124.44 33.6551 124.208 33.4584C123.964 33.2392 123.72 33.0196 123.477 32.7995C123.356 32.6914 123.235 32.5833 123.111 32.4719C122.461 31.8747 121.885 31.2254 121.296 30.5819C120.637 29.8671 119.958 29.1676 119.279 28.4674C118.654 27.8205 118.043 27.1649 117.44 26.5019C114.829 23.7028 111.97 20.8608 108.081 19.4492C107.913 19.3794 107.744 19.3097 107.571 19.2378C105.854 18.7286 103.657 18.8917 102.031 19.5665C100.266 20.4636 98.8122 21.5017 97.558 22.9154C96.9231 22.6598 96.4339 22.3727 95.9137 21.9646C95.3833 21.5505 94.8416 21.1663 94.2695 20.7972C94.391 20.5904 94.5125 20.3836 94.6377 20.1706C94.7982 19.894 94.9587 19.6175 95.119 19.3409C95.199 19.2052 95.279 19.0696 95.3614 18.9298C96.4327 17.0735 96.9867 15.0859 96.2289 13.0449C93.3121 7.60048 85.4102 5.6453 79.5132 3.59612C79.0785 3.44499 78.6438 3.29386 78.2091 3.14273C77.897 3.03448 77.897 3.03448 77.5786 2.92404C76.1974 2.44145 74.8499 1.92253 73.5154 1.34635C72.4037 0.931174 71.6014 1.43439 70.5925 1.85343Z" fill="#3D392E"/>
<path d="M68.181 35.6248C68.6337 36.0225 68.8124 36.3214 69.0784 36.8275C69.2069 37.0694 69.2069 37.0694 69.3379 37.3161C69.4264 37.4848 69.5148 37.6535 69.606 37.8272C69.7813 38.1602 69.9571 38.4929 70.1335 38.8254C70.2111 38.9732 70.2886 39.121 70.3686 39.2733C70.6047 39.711 70.6047 39.711 71.031 40.2464C71.1033 39.9286 71.1757 39.6109 71.2502 39.2835C71.9079 39.9816 71.9079 39.9816 71.9079 40.6315C72.0526 40.6315 72.1973 40.6315 72.3464 40.6315C72.3464 40.1867 72.3464 39.7418 72.3464 39.2835C72.491 39.3471 72.6357 39.4106 72.7848 39.4761C72.9218 39.8733 72.9218 39.8733 73.004 40.2464C73.2211 39.9922 73.4381 39.738 73.6617 39.4761C73.8788 39.9527 73.8788 39.9527 74.1002 40.4389C74.3172 39.9941 74.5343 39.5493 74.7579 39.091C74.8302 39.091 74.9026 39.091 74.9771 39.091C75.0856 39.6629 75.0856 39.6629 75.1964 40.2464C76.0988 38.9304 76.9484 37.6273 77.6079 36.2025C77.6803 36.2025 77.7526 36.2025 77.8271 36.2025C77.7955 36.4288 77.7638 36.6552 77.7312 36.8885C77.5642 38.1966 77.4813 39.5106 77.3887 40.8241C77.6057 40.6334 77.8228 40.4428 78.0464 40.2464C78.0464 40.6912 78.0464 41.136 78.0464 41.5943C78.3358 41.4037 78.6251 41.213 78.9233 41.0166C78.8509 41.3979 78.7786 41.7792 78.7041 42.172C79.0658 41.9814 79.4275 41.7907 79.8002 41.5943C79.5832 42.1662 79.5832 42.1662 79.3618 42.7497C79.9405 42.4955 80.5193 42.2413 81.1156 41.9794C81.1156 42.3646 81.1156 42.3646 80.6771 42.7738C80.5325 42.8929 80.3878 43.0121 80.2387 43.1348C80.8009 42.923 81.3626 42.7103 81.924 42.497C82.0821 42.4375 82.2403 42.3781 82.4032 42.3168C83.0957 42.0529 83.7375 41.7917 84.381 41.4416C84.5333 41.3649 84.6856 41.2882 84.8425 41.2092C84.9872 41.2727 85.1319 41.3363 85.281 41.4017C85.1316 41.53 85.1316 41.53 84.9791 41.6608C84.5305 42.0468 84.0836 42.4344 83.6368 42.8219C83.4799 42.9565 83.3231 43.091 83.1615 43.2296C83.0131 43.3587 82.8647 43.4878 82.7119 43.6208C82.5741 43.7398 82.4363 43.8588 82.2944 43.9814C81.9449 44.2711 81.9449 44.2711 81.9925 44.6754C82.3181 44.7707 82.3181 44.7707 82.6502 44.8679C82.4332 45.0586 82.2161 45.2492 81.9925 45.4456C82.3543 45.5092 82.716 45.5727 83.0887 45.6382C82.727 45.8924 82.3652 46.1466 81.9925 46.4085C82.4266 46.472 82.8607 46.5356 83.3079 46.601C83.0185 46.7917 82.7291 46.9823 82.431 47.1787C83.0098 47.3058 83.5885 47.4329 84.1848 47.5639C83.7464 47.7564 83.3079 47.949 82.8695 48.1416C84.6915 48.4809 86.4877 48.8002 88.3502 48.9118C88.2779 49.0389 88.2055 49.166 88.131 49.297C87.7009 49.3907 87.7009 49.3907 87.141 49.4542C86.939 49.4781 86.7369 49.5021 86.5287 49.5268C86.3159 49.5502 86.1031 49.5737 85.8839 49.5979C85.4671 49.646 85.0503 49.6944 84.6336 49.743C84.4478 49.7638 84.2621 49.7845 84.0707 49.8059C83.519 49.8757 82.9765 49.9669 82.431 50.0672C82.9374 50.1943 83.4438 50.3214 83.9656 50.4524C83.9656 50.5159 83.9656 50.5795 83.9656 50.6449C83.3145 50.6449 82.6634 50.6449 81.9925 50.6449C81.9925 50.772 81.9925 50.8991 81.9925 51.0301C82.2503 51.0658 82.2503 51.0658 82.5132 51.1023C83.0887 51.2226 83.0887 51.2226 83.5272 51.6078C83.0931 51.6713 82.659 51.7349 82.2118 51.8003C82.5011 52.0545 82.7905 52.3087 83.0887 52.5706C82.6546 52.5706 82.2205 52.5706 81.7733 52.5706C82.0627 52.8883 82.3521 53.2061 82.6502 53.5334C82.2161 53.4063 81.7821 53.2792 81.3348 53.1483C82.2991 54.3673 83.4097 55.3925 84.6233 56.4219C84.843 56.6141 85.0625 56.8065 85.281 56.9996C84.1688 56.7078 83.1827 56.2872 82.157 55.8202C81.1371 55.2919 81.1371 55.2919 80.0194 55.074C80.3088 55.3917 80.5982 55.7094 80.8964 56.0368C80.6454 55.9474 80.6454 55.9474 80.3894 55.8563C79.9783 55.7135 79.5619 55.5819 79.1425 55.4591C79.2872 55.7768 79.4319 56.0946 79.581 56.4219C79.2193 56.2313 78.8575 56.0407 78.4848 55.8442C78.5572 56.2255 78.6295 56.6068 78.7041 56.9996C78.3423 56.7454 77.9806 56.4913 77.6079 56.2294C77.7164 57.0873 77.7164 57.0873 77.8271 57.9625C77.4971 57.5843 77.1933 57.2341 76.9502 56.8071C76.9272 57.9172 77.0088 58.9802 77.1694 60.0807C77.1904 60.2299 77.2113 60.3791 77.2328 60.5328C77.2838 60.8957 77.3361 61.2585 77.3887 61.6212C76.6826 60.8746 76.2103 60.0226 75.7033 59.166C75.5666 58.937 75.5666 58.937 75.4272 58.7034C75.2034 58.3284 74.9803 57.953 74.7579 57.5773C74.6855 57.8951 74.6132 58.2128 74.5387 58.5402C74.0214 58.0858 73.9925 57.8125 73.881 57.1922C73.7363 57.1922 73.5916 57.1922 73.4425 57.1922C73.4425 57.637 73.4425 58.0819 73.4425 58.5402C72.9737 58.1284 72.9105 57.9369 72.7848 57.3848C72.6401 57.7025 72.4954 58.0202 72.3464 58.3476C71.9079 57.7699 71.9079 57.7699 71.6887 57.3848C71.4716 57.8296 71.2546 58.2744 71.031 58.7327C70.9586 58.7327 70.8863 58.7327 70.8117 58.7327C70.7394 58.3514 70.667 57.9702 70.5925 57.5773C70.2719 58.0704 69.9524 58.5639 69.6334 59.0577C69.5429 59.1966 69.4525 59.3355 69.3593 59.4785C68.9079 60.1789 68.4916 60.861 68.181 61.6212C68.1086 61.6212 68.0363 61.6212 67.9617 61.6212C67.9816 61.4596 67.9816 61.4596 68.002 61.2948C68.1721 59.8652 68.2896 58.4336 68.4002 56.9996C68.1831 57.1903 67.9661 57.3809 67.7425 57.5773C67.7425 57.1325 67.7425 56.6877 67.7425 56.2294C67.4531 56.42 67.1637 56.6106 66.8656 56.8071C66.9379 56.4258 67.0103 56.0445 67.0848 55.6517C66.7231 55.8423 66.3613 56.0329 65.9886 56.2294C66.1333 55.8481 66.278 55.4668 66.4271 55.074C66.2553 55.1733 66.0835 55.2726 65.9064 55.3749C65.7165 55.4662 65.5266 55.5576 65.3309 55.6517C65.1139 55.5563 65.1139 55.5563 64.8925 55.4591C65.0372 55.2685 65.1819 55.0778 65.3309 54.8814C65.4756 54.8814 65.6203 54.8814 65.7694 54.8814C65.7694 54.7543 65.7694 54.6272 65.7694 54.4963C65.5654 54.5838 65.5654 54.5838 65.3572 54.673C64.7417 54.9362 64.1251 55.1977 63.5086 55.4591C63.2945 55.5509 63.0804 55.6428 62.8599 55.7374C62.6543 55.8243 62.4487 55.9112 62.2369 56.0007C61.9527 56.1217 61.9527 56.1217 61.6628 56.2452C61.1656 56.4219 61.1656 56.4219 60.5079 56.4219C60.6556 56.2937 60.6556 56.2937 60.8063 56.1629C61.2509 55.7763 61.6946 55.3891 62.1384 55.0018C62.2934 54.8672 62.4484 54.7327 62.6081 54.5941C62.7558 54.465 62.9034 54.3359 63.0556 54.2029C63.1922 54.0839 63.3288 53.9649 63.4696 53.8423C63.8162 53.5437 63.8162 53.5437 64.0156 53.1483C63.473 53.2436 63.473 53.2436 62.9194 53.3409C63.2088 53.0231 63.4982 52.7054 63.7963 52.378C63.4346 52.3145 63.0729 52.2509 62.7002 52.1855C63.0619 51.9313 63.4236 51.6771 63.7963 51.4152C63.3623 51.3517 62.9282 51.2881 62.4809 51.2226C62.7703 51.032 63.0597 50.8414 63.3579 50.6449C62.9848 50.6092 62.9848 50.6092 62.6043 50.5727C62.3465 50.533 62.0888 50.4933 61.8232 50.4524C61.7147 50.2617 61.7147 50.2617 61.604 50.0672C62.2551 49.9719 62.2551 49.9719 62.9194 49.8747C62.3085 49.5809 61.7806 49.4204 61.0936 49.3256C60.9184 49.3007 60.7432 49.2759 60.5627 49.2503C60.3818 49.226 60.2009 49.2017 60.0146 49.1766C59.8303 49.1508 59.6461 49.125 59.4562 49.0984C59.0031 49.0351 58.5497 48.9733 58.0963 48.9118C58.0963 48.7847 58.0963 48.6577 58.0963 48.5267C58.3735 48.4872 58.6508 48.4478 58.9364 48.4071C59.3004 48.3547 59.6643 48.3023 60.0283 48.2499C60.211 48.224 60.3937 48.198 60.5819 48.1713C60.7579 48.1458 60.9338 48.1204 61.115 48.0942C61.2769 48.071 61.4388 48.0478 61.6056 48.0239C62.0855 47.9502 62.0855 47.9502 62.7002 47.7564C62.3384 47.6293 61.9767 47.5023 61.604 47.3713C61.604 47.3078 61.604 47.2442 61.604 47.1787C62.3275 47.1787 63.0509 47.1787 63.7963 47.1787C63.7963 47.0516 63.7963 46.9246 63.7963 46.7936C63.5318 46.7579 63.5318 46.7579 63.262 46.7214C63.0766 46.6817 62.8912 46.642 62.7002 46.601C62.6278 46.4739 62.5555 46.3469 62.4809 46.2159C63.0235 46.1206 63.0235 46.1206 63.5771 46.0233C63.4324 45.8327 63.2877 45.6421 63.1386 45.4456C63.5727 45.3503 63.5727 45.3503 64.0156 45.2531C63.7262 44.9353 63.4368 44.6176 63.1386 44.2902C63.5727 44.4173 64.0068 44.5444 64.454 44.6754C63.4895 43.456 62.3783 42.4321 61.1656 41.4017C60.8727 41.1454 60.5803 40.8888 60.2886 40.6315C61.4454 41.0113 62.5259 41.5155 63.6221 42.0114C63.7725 42.0786 63.923 42.1457 64.0781 42.2149C64.2135 42.276 64.3488 42.3371 64.4883 42.4C64.9104 42.5641 65.3193 42.6627 65.7694 42.7497C65.48 42.432 65.1906 42.1142 64.8925 41.7869C65.0598 41.8465 65.2271 41.906 65.3995 41.9674C65.8106 42.1102 66.2269 42.2418 66.6463 42.3646C66.5016 42.0468 66.357 41.7291 66.2079 41.4017C66.5696 41.5924 66.9313 41.783 67.304 41.9794C67.1955 41.4075 67.1955 41.4075 67.0848 40.8241C67.6274 41.2053 67.6274 41.2053 68.181 41.5943C68.0724 40.8318 68.0724 40.8318 67.9617 40.0538C68.3363 40.3685 68.6051 40.6063 68.8386 41.0166C68.9382 39.6105 68.6976 38.3596 68.3248 36.9923C68.181 36.395 68.181 36.395 68.181 35.6248Z" fill="#FAFBFD"/>
<path d="M86.8156 40.824C89.2035 44.4589 90.1972 48.0087 89.1861 52.2095C89.0636 52.5892 88.9311 52.9665 88.7887 53.3408C88.7116 53.5515 88.6344 53.7623 88.5549 53.9794C87.0622 57.7139 83.7333 60.5912 79.7591 62.3553C75.9369 63.7587 71.2148 64.198 67.3081 62.8154C64.3878 61.6923 61.6786 60.1384 59.6309 57.9624C59.4614 57.5201 59.4614 57.5201 59.4117 57.1921C60.4652 56.6603 61.5224 56.1363 62.5906 55.6275C62.7962 55.5274 62.7962 55.5274 63.0059 55.4252C63.9117 54.9953 64.7701 54.7156 65.7694 54.4962C65.7694 54.6233 65.7694 54.7504 65.7694 54.8813C65.6247 54.8813 65.48 54.8813 65.331 54.8813C65.331 55.072 65.331 55.2626 65.331 55.459C65.6203 55.2684 65.9097 55.0777 66.2079 54.8813C66.3526 54.9449 66.4973 55.0084 66.6463 55.0739C66.5378 55.4552 66.5378 55.4552 66.4271 55.8442C66.8612 55.6535 66.8612 55.6535 67.304 55.459C67.2317 55.8403 67.1593 56.2216 67.0848 56.6144C67.3742 56.4238 67.6636 56.2331 67.9617 56.0367C67.9617 56.418 67.9617 56.7993 67.9617 57.1921C68.1788 57.0015 68.3958 56.8108 68.6194 56.6144C68.5882 57.0959 68.5561 57.5773 68.5235 58.0587C68.5149 58.1927 68.5063 58.3268 68.4974 58.4649C68.4337 59.3952 68.3219 60.3122 68.181 61.236C68.2974 61.0225 68.4138 60.8091 68.5338 60.5891C68.6901 60.3072 68.8466 60.0254 69.0031 59.7436C69.0794 59.6031 69.1557 59.4626 69.2343 59.3179C69.6633 58.5503 70.0589 57.9506 70.8117 57.3847C70.8841 57.7024 70.9564 58.0202 71.031 58.3475C71.248 57.9027 71.4651 57.4579 71.6887 56.9996C71.8334 57.2537 71.9781 57.5079 72.1271 57.7698C72.3442 57.5156 72.5612 57.2614 72.7848 56.9996C72.9295 57.3808 73.0742 57.7621 73.2233 58.155C73.2956 57.8372 73.368 57.5195 73.4425 57.1921C73.5872 57.1921 73.7319 57.1921 73.881 57.1921C74.0257 57.5099 74.1704 57.8276 74.3194 58.155C74.3918 57.8372 74.4641 57.5195 74.5387 57.1921C75.328 57.9838 75.8313 58.8164 76.3473 59.7557C76.427 59.8983 76.5067 60.0409 76.5888 60.1878C76.7836 60.5367 76.9767 60.8863 77.1695 61.236C77.1378 61.0476 77.1062 60.8592 77.0735 60.6651C76.8524 59.3081 76.6761 57.9886 76.731 56.6144C77.1055 56.9291 77.3743 57.1669 77.6079 57.5773C77.4994 56.8147 77.4994 56.8147 77.3887 56.0367C77.7504 56.2909 78.1121 56.5451 78.4848 56.807C78.4125 56.4257 78.3401 56.0444 78.2656 55.6516C78.6273 55.8422 78.9891 56.0329 79.3618 56.2293C79.2171 55.848 79.0724 55.4667 78.9233 55.0739C79.5021 55.3281 80.0808 55.5823 80.6772 55.8442C80.3154 55.4629 79.9537 55.0816 79.581 54.6888C80.696 54.9818 81.6887 55.4022 82.7187 55.8682C83.6422 56.365 83.6422 56.365 84.6233 56.6144C84.4803 56.4911 84.3373 56.3677 84.19 56.2406C83.1143 55.3055 82.0796 54.3658 81.1156 53.3408C81.2241 53.1502 81.2241 53.1502 81.3348 52.9557C81.7689 53.051 81.7689 53.051 82.2118 53.1482C81.9947 52.894 81.7777 52.6399 81.5541 52.378C81.9882 52.378 82.4222 52.378 82.8695 52.378C82.5077 52.1238 82.146 51.8696 81.7733 51.6077C82.2074 51.5442 82.6415 51.4806 83.0887 51.4151C82.727 51.288 82.3652 51.1609 81.9925 51.03C81.9925 50.9029 81.9925 50.7758 81.9925 50.6449C82.7522 50.5495 82.7522 50.5495 83.5272 50.4523C83.0931 50.3888 82.659 50.3252 82.2118 50.2597C82.3203 50.0691 82.3203 50.0691 82.431 49.8746C83.0181 49.7543 83.5907 49.6572 84.1849 49.5737C84.3451 49.5495 84.5053 49.5253 84.6704 49.5004C85.8203 49.3308 86.9714 49.2104 88.131 49.1043C88.0051 49.0889 87.8792 49.0734 87.7494 49.0574C87.1731 48.9859 86.597 48.9127 86.0209 48.8396C85.8228 48.8152 85.6247 48.7909 85.4206 48.7658C84.381 48.6325 83.4182 48.4728 82.431 48.1415C82.8695 47.9489 83.3079 47.7564 83.7464 47.5638C83.24 47.5003 82.7335 47.4367 82.2118 47.3712C82.4288 47.1806 82.6459 46.99 82.8695 46.7935C82.5077 46.73 82.146 46.6664 81.7733 46.601C82.0627 46.3468 82.3521 46.0926 82.6502 45.8307C82.3609 45.7036 82.0715 45.5765 81.7733 45.4456C82.0627 45.1914 82.3521 44.9372 82.6502 44.6753C82.4332 44.4847 82.4332 44.4847 82.2118 44.2902C82.8531 43.7101 83.498 43.1333 84.1438 42.5571C84.3265 42.3918 84.5092 42.2264 84.6974 42.0561C84.8733 41.8997 85.0492 41.7433 85.2305 41.5822C85.4733 41.3644 85.4733 41.3644 85.721 41.1422C86.1579 40.824 86.1579 40.824 86.8156 40.824Z" fill="#063392"/>
<path d="M72.8944 33.4343C73.1428 33.432 73.3912 33.4298 73.6472 33.4275C75.9775 33.4345 78.1117 33.854 80.2387 34.6859C80.3864 34.7436 80.5341 34.8012 80.6862 34.8606C85.155 36.6827 88.0822 40.0199 89.8429 43.9502C91.33 48.0787 90.7761 52.6167 88.5685 56.4559C88.0148 57.3465 87.327 58.1426 86.5964 58.9252C86.4257 59.1141 86.255 59.3031 86.0791 59.4977C83.4728 62.222 79.2262 64.125 75.2169 64.4775C70.0803 64.8374 65.4146 63.7879 61.3848 60.8509C57.8254 58.0728 55.5133 54.4368 55.2158 50.2116C54.9882 45.4844 56.5587 41.6728 60.072 38.0596C63.3942 34.9257 68.0821 33.391 72.8944 33.4343ZM60.4719 39.0683C57.156 42.4271 56.0351 46.2255 56.302 50.5866C56.3902 51.5531 56.6258 52.4313 57.0001 53.3408C57.0748 53.527 57.1494 53.7132 57.2262 53.905C59.0061 57.9718 62.1614 60.661 66.5367 62.5599C70.4579 64.0109 75.0098 63.9569 78.9643 62.6137C83.3121 60.9818 86.7235 58.0754 88.5146 54.2194C89.9503 50.9954 90.0738 46.8921 88.5322 43.6867C87.5266 41.701 86.4217 40.0414 84.6233 38.5132C84.4628 38.3749 84.3023 38.2367 84.1369 38.0942C80.9833 35.5047 76.7134 34.127 72.4148 34.2309C67.7553 34.4193 63.714 36.0811 60.4719 39.0683Z" fill="#F3F4F7"/>
<path d="M101.723 29.6553C102.467 30.1602 102.671 30.7962 102.82 31.5809C103.039 33.4599 102.601 34.9753 101.244 36.4553C100.426 37.2197 99.5097 37.6882 98.4349 38.1282C98.2359 38.2116 98.037 38.295 97.832 38.3809C97.2082 38.5484 96.8929 38.6251 96.2426 38.5133C95.7602 38.0644 95.4201 37.5508 95.0642 37.0209C94.9627 36.8804 94.8613 36.7399 94.7568 36.5952C94.0359 35.5557 94.0359 35.5557 94.0978 35.0226C94.3796 34.4307 94.9316 34.2632 95.5575 33.9639C95.792 33.8503 96.0266 33.7366 96.2683 33.6194C96.4768 33.5187 96.6854 33.4179 96.9003 33.314C97.1173 33.1869 97.3343 33.0598 97.558 32.9289C98.0555 32.8762 98.0555 32.8762 98.613 32.8567C99.6474 32.7811 100.267 32.5798 101.066 31.9661C101.638 31.2959 101.631 30.4664 101.723 29.6553Z" fill="#E76F12"/>
<path d="M77.8271 71.6348C77.9015 72.088 77.9744 72.5413 78.0464 72.9948C78.0673 73.1213 78.0882 73.2478 78.1097 73.3781C78.2412 74.2154 78.3138 75.0265 78.2656 75.8713C78.1571 75.9904 78.0486 76.1096 77.9368 76.2323C77.4018 76.898 77.4696 77.5882 77.6079 78.3746C78.132 79.3307 78.6911 79.7092 79.8002 80.1077C79.8002 80.1713 79.8002 80.2348 79.8002 80.3003C77.7629 80.4716 76.5156 79.9304 74.8127 79.0125C73.1022 77.4684 72.523 75.75 72.5074 73.6553C72.578 73.0732 72.7761 72.5682 73.0041 72.0199C73.6023 71.9551 74.2006 71.891 74.799 71.8274C74.9676 71.809 75.1362 71.7906 75.3098 71.7717C76.1542 71.6826 76.9747 71.6108 77.8271 71.6348Z" fill="#E76F12"/>
<path d="M83.0887 70.4793C83.3018 70.9763 83.4893 71.4645 83.6642 71.9717C83.7396 72.1787 83.7396 72.1787 83.8166 72.39C84.0714 73.1146 84.2749 73.7559 84.1848 74.5232C84.1125 74.5868 84.0401 74.6503 83.9656 74.7158C83.8341 75.848 84.1181 76.6785 84.8425 77.6043C85.5414 78.0135 85.9968 78.0861 86.8156 78.182C86.8156 78.3091 86.8156 78.4362 86.8156 78.5671C82.6981 78.7151 82.6981 78.7151 81.3348 77.7969C81.2037 77.7197 81.0726 77.6425 80.9375 77.5629C79.5959 76.6867 78.5443 75.2107 78.2656 73.753C78.2509 73.3841 78.2469 73.0148 78.2519 72.6457C78.2539 72.4561 78.2558 72.2664 78.2579 72.071C78.2604 71.927 78.263 71.7831 78.2656 71.6347C82.1272 70.0571 82.1272 70.0571 83.0887 70.4793Z" fill="#E76F12"/>
<path d="M46.4771 47.9491C46.6769 49.366 46.7214 50.7586 46.6963 52.1856C45.6207 52.3369 44.5822 52.4146 43.49 52.4263C43.2114 52.4313 42.9327 52.4362 42.6456 52.4413C41.8196 52.3738 41.4589 52.1913 40.777 51.8004C39.7561 51.6273 38.9858 51.7176 38.064 52.1374C37.5575 52.5188 37.2162 52.8699 36.8309 53.341C36.8387 51.5082 37.3564 50.429 38.7808 49.103C40.9045 47.3444 43.7359 47.0193 46.4771 47.9491Z" fill="#E76E12"/>
<path d="M90.7618 21.1824C91.9705 21.6056 92.5273 22.547 93.1734 23.4932C93.9229 25.1249 93.739 26.5763 93.0124 28.1832C92.3234 29.4477 91.3632 30.3532 90.1041 31.1958C89.0675 30.8929 88.275 30.3858 87.4048 29.8238C87.2634 29.7337 87.1219 29.6436 86.9762 29.5507C86.6296 29.3297 86.2841 29.1075 85.9387 28.885C86.3112 28.3636 86.6861 27.8437 87.0649 27.3257C87.302 27.0013 87.5368 26.6755 87.7654 26.3463C88.408 25.4684 89.0235 25.2208 90.1041 24.8411C90.8723 24.1309 91.1801 23.6253 91.2414 22.6387C91.2038 22.0114 91.1392 21.7003 90.7618 21.1824Z" fill="#E76F12"/>
<path d="M83.9656 18.4863C85.565 18.912 86.5381 19.8243 87.35 21.0739C88.1712 22.6429 88.3041 24.2519 87.6446 25.8896C87.1148 26.8559 86.4994 27.6747 85.7195 28.4998C84.6741 28.3841 83.7629 28.1179 82.801 27.7536C82.6623 27.7042 82.5237 27.6548 82.3809 27.6039C82.0235 27.47 81.6779 27.3122 81.3348 27.1518C80.9969 26.2614 81.4804 25.6596 81.8966 24.829C81.9702 24.6695 82.0439 24.51 82.1197 24.3457C82.7035 23.1721 82.7035 23.1721 83.57 22.8371C83.8743 22.7805 83.8743 22.7805 84.1848 22.7228C84.4923 22.2643 84.4923 22.2643 84.6233 21.76C84.6957 21.5693 84.768 21.3787 84.8425 21.1823C84.9553 19.9736 84.8273 19.4324 83.9656 18.4863Z" fill="#E76F12"/>
<path d="M45.3535 52.5465C45.6061 52.5499 45.8588 52.5534 46.1191 52.557C46.3096 52.5615 46.5 52.5659 46.6963 52.5705C47.3533 53.9445 47.6828 55.3481 48.0117 56.807C47.3465 56.9809 46.6792 57.1473 46.0112 57.3125C45.8235 57.3616 45.6359 57.4108 45.4426 57.4614C44.2983 57.7397 43.6559 57.8057 42.5309 57.3847C41.4203 57.351 40.3003 57.4833 39.4617 58.155C39.1795 58.6626 38.9964 59.1528 38.804 59.6955C38.6593 59.6955 38.5146 59.6955 38.3655 59.6955C38.2345 57.6271 38.4537 56.261 39.9549 54.6406C41.4457 53.2331 43.1474 52.5069 45.3535 52.5465Z" fill="#E76F12"/>
<path d="M67.7425 71.6348C68.086 71.6451 68.429 71.6696 68.771 71.7002C68.978 71.7182 69.185 71.7362 69.3983 71.7547C69.616 71.7747 69.8338 71.7947 70.0581 71.8153C70.2767 71.8345 70.4953 71.8538 70.7205 71.8736C71.2626 71.9214 71.8045 71.9702 72.3463 72.0199C72.3413 72.6701 72.3243 73.3196 72.3052 73.9696C72.304 74.1528 72.3027 74.336 72.3014 74.5248C72.2559 75.8024 72.0109 76.2934 71.031 77.2192C70.8074 78.1506 70.8848 79.044 71.3187 79.9151C71.6459 80.2557 71.9701 80.5789 72.3463 80.878C70.5903 80.8123 69.2979 80.0138 68.1124 78.9041C66.9357 77.5884 66.4969 76.1937 66.5581 74.5323C66.6954 73.6193 66.9711 72.3123 67.7425 71.6348Z" fill="#E76E12"/>
<path d="M58.1468 68.1797C58.9466 68.4185 59.6336 68.7644 60.3571 69.1433C60.4986 69.2159 60.64 69.2885 60.7858 69.3633C61.1324 69.5415 61.4779 69.7214 61.8233 69.9015C61.8233 70.7871 61.5148 71.3424 61.0559 72.104C60.9776 72.2344 60.8993 72.3648 60.8186 72.4992C60.2555 73.3846 59.7358 73.8939 58.6881 74.3531C58.0806 74.6304 57.8886 74.9286 57.6579 75.486C57.5345 76.4591 57.5764 77.297 58.0963 78.1819C56.4674 77.3643 55.4301 76.1805 54.9115 74.5901C54.5074 72.827 54.8996 71.3473 56.0128 69.8436C56.3289 69.4649 56.6502 69.1011 57.0002 68.7461C57.149 68.576 57.149 68.576 57.3007 68.4024C57.6579 68.1684 57.6579 68.1684 58.1468 68.1797Z" fill="#E76E12"/>
<path d="M49.6191 33.0109C50.4629 33.5431 51.1352 34.1038 51.7386 34.8546C51.391 35.7318 50.8638 36.4557 50.2862 37.2255C50.1941 37.3498 50.1019 37.474 50.007 37.602C49.7812 37.9063 49.5542 38.2099 49.327 38.5133C45.339 36.6974 45.339 36.6974 44.504 35.0471C43.622 34.3451 42.8361 34.235 41.6557 34.2445C41.0865 34.2863 40.6278 34.4387 40.1193 34.662C42.555 31.85 46.1158 31.1295 49.6191 33.0109Z" fill="#E76E12"/>
<path d="M76.9502 17.1384C78.7081 17.5137 79.9823 18.1796 81.0223 19.5034C82.0409 21.0417 82.2774 22.6585 81.8684 24.4101C81.5891 25.2691 81.2655 26.0285 80.6772 26.7668C79.0272 26.6439 77.4608 26.3433 75.8541 25.9965C76.4524 21.996 76.4524 21.996 77.8271 20.9898C78.262 20.2258 78.1684 19.3167 78.0464 18.4864C77.7438 17.9437 77.4127 17.5954 76.9502 17.1384Z" fill="#E76E12"/>
<path d="M87.9118 68.361C88.1927 68.7672 88.1927 68.7672 88.4599 69.2757C88.7439 69.8084 89.0004 70.2775 89.3916 70.756C89.6983 71.3083 89.7195 71.6865 89.7616 72.2966C89.849 73.4376 90.237 74.0622 91.1592 74.8721C91.8142 75.1845 92.4379 75.2313 93.1733 75.2934C92.358 76.0095 91.2565 76.0928 90.1452 76.1359C88.1842 76.0889 86.6789 75.3648 85.2767 74.1899C84.0574 72.9626 83.6155 71.697 83.5272 70.0941C84.4528 69.5734 85.3874 69.0653 86.3361 68.5776C86.4957 68.4947 86.6554 68.4118 86.8199 68.3264C87.2541 68.1684 87.2541 68.1684 87.9118 68.361Z" fill="#E76E12"/>
<path d="M98.6541 52.7632C99.2939 52.8823 99.9332 53.0028 100.572 53.1242C100.753 53.1578 100.934 53.1913 101.12 53.2258C101.296 53.2593 101.471 53.2928 101.651 53.3273C101.812 53.3576 101.973 53.3878 102.139 53.419C103.218 53.6866 103.796 54.1805 104.573 54.8814C105.333 55.2149 106.155 55.1671 106.985 55.074C107.731 54.7285 107.731 54.7285 108.3 54.3037C108.445 54.2402 108.59 54.1766 108.739 54.1111C108.376 55.4936 107.36 56.5684 106.135 57.457C104.323 58.2847 102.492 58.6997 100.471 58.2009C99.3998 57.8434 98.504 57.3778 97.558 56.8071C97.6995 56.2775 97.8411 55.748 97.9827 55.2184C98.0227 55.0687 98.0627 54.919 98.1039 54.7648C98.1428 54.6196 98.1816 54.4744 98.2217 54.3248C98.2751 54.1251 98.2751 54.1251 98.3295 53.9214C98.4346 53.5346 98.5435 53.1488 98.6541 52.7632Z" fill="#E76E12"/>
<path d="M54.1176 65.2033C54.7494 65.5645 55.2718 65.995 55.8218 66.4475C56.5709 67.0931 56.5709 67.0931 57.4386 67.5908C56.8228 68.8489 55.4644 70.4922 54.0294 71.1022C53.7018 71.1738 53.3729 71.2413 53.0429 71.3038C52.3219 71.5373 52.0454 72.0098 51.6949 72.5863C51.3397 73.3884 51.4569 74.1043 51.7386 74.9084C50.4733 74.2415 49.9619 73.2198 49.5463 72.0199C49.2566 70.1907 49.5769 68.6131 50.818 67.1139C52.9584 64.8725 52.9584 64.8725 54.1176 65.2033Z" fill="#E76E12"/>
<path d="M108.958 47.7566C109.266 48.567 108.969 48.9867 108.599 49.7522C107.701 51.2789 106.419 52.1705 104.613 52.7791C102.789 53.2415 100.808 53.084 99.0926 52.3782C98.8734 52.1856 98.8734 52.1856 98.8442 51.82C98.8487 50.5845 98.9477 49.3703 99.0926 48.1417C99.8416 48.1193 100.59 48.1057 101.34 48.0936C101.658 48.0839 101.658 48.0839 101.983 48.074C103.571 48.0548 103.571 48.0548 104.241 48.5178C104.351 48.6479 104.46 48.778 104.573 48.912C105.465 49.1729 106.272 49.2079 107.204 49.1046C108.038 48.7185 108.436 48.4447 108.958 47.7566Z" fill="#E76E12"/>
<path d="M62.0425 18.2938C64.2742 18.2043 65.9251 18.2892 67.6877 19.5696C69.0159 20.6751 69.8915 21.9454 69.9639 23.5669C69.9634 23.8047 69.9628 24.0425 69.9622 24.2875C69.9631 24.6457 69.9631 24.6457 69.9639 25.0111C69.9348 25.6114 69.9348 25.6114 69.7156 25.9965C69.3389 26.1109 69.3389 26.1109 68.8541 26.2026C68.6797 26.2361 68.5053 26.2696 68.3257 26.3042C68.1423 26.3377 67.9589 26.3712 67.7699 26.4057C67.5882 26.4407 67.4065 26.4757 67.2193 26.5118C66.4978 26.6479 65.8523 26.7668 65.1117 26.7668C64.9636 26.2777 64.8178 25.7883 64.6733 25.2984C64.6314 25.1612 64.5896 25.0239 64.5465 24.8825C64.2104 23.7331 64.0255 22.8444 64.6733 21.76C64.7446 20.8763 64.5922 20.0774 63.9745 19.365C63.3332 18.8518 62.8799 18.6575 62.0425 18.4864C62.0425 18.4229 62.0425 18.3593 62.0425 18.2938Z" fill="#E76E12"/>
<path d="M69.4963 17.1384C71.4826 17.2215 72.8939 17.723 74.2783 19.0039C75.476 20.3103 75.9521 21.6274 75.9491 23.2945C75.8097 24.1508 75.4793 24.9754 75.1964 25.8039C73.6047 25.8039 72.0131 25.8039 70.3733 25.8039C70.3597 25.1565 70.3461 24.5092 70.3322 23.8421C70.3262 23.6398 70.3202 23.4374 70.314 23.229C70.3038 22.2246 70.3614 21.6406 71.031 20.7972C71.1869 19.8627 71.172 18.9763 70.7569 18.1013C70.37 17.7128 69.9873 17.421 69.4963 17.1384Z" fill="#E76E12"/>
<path d="M50.8617 61.6213C51.3513 62.0094 51.7333 62.4755 52.136 62.9332C52.2489 63.0545 52.3618 63.1757 52.4781 63.3006C52.5836 63.4189 52.6892 63.5372 52.7979 63.6591C52.8945 63.7668 52.9911 63.8744 53.0907 63.9854C53.2732 64.3173 53.2732 64.3173 53.2192 64.7221C52.9857 65.2385 52.6297 65.4368 52.1223 65.7615C51.5582 66.1245 51.0407 66.4691 50.5328 66.8928C49.9433 67.2294 49.6948 67.2511 49.0119 67.29C47.9025 67.3582 47.4594 67.6581 46.6963 68.3612C46.0903 69.0628 46.2257 69.8262 46.2578 70.672C45.2599 69.8814 45.0144 68.9054 44.8628 67.7586C44.7762 65.9185 45.3727 64.8011 46.5182 63.3063C47.5687 62.404 49.3255 61.1118 50.8617 61.6213Z" fill="#E76E12"/>
<path d="M62.4809 70.2869C63.4837 70.438 64.4324 70.7019 65.3994 70.9729C65.5618 71.0179 65.7242 71.063 65.8914 71.1094C66.2894 71.2199 66.6871 71.331 67.0848 71.4423C66.9868 71.8462 66.8875 72.25 66.7825 72.6526C66.6893 73.0102 66.6011 73.3689 66.517 73.7282C66.1879 74.9888 65.8744 75.5156 64.6732 76.2564C64.101 77.0559 64.1079 77.8422 64.2348 78.7598C64.5193 79.3164 64.5193 79.3164 64.8925 79.7226C64.9648 79.8497 65.0372 79.9768 65.1117 80.1078C63.5335 79.7958 62.4873 78.8785 61.5218 77.7849C60.5919 76.3084 60.5049 74.8322 60.7271 73.1754C61.1589 72.1212 61.7763 71.2153 62.4809 70.2869Z" fill="#E76E12"/>
<path d="M47.354 37.7429C47.9222 38.0988 48.3873 38.4678 48.8886 38.8983C48.7284 39.8011 48.3698 40.6139 47.998 41.4619C47.9362 41.6045 47.8745 41.7471 47.8108 41.894C47.6593 42.2437 47.5068 42.593 47.354 42.9422C47.0115 42.8063 47.0115 42.8063 46.662 42.6677C45.985 42.4121 45.3382 42.2603 44.6136 42.1359C43.4282 41.8709 42.9438 41.4283 42.2123 40.5946C41.5735 39.9386 40.8414 39.893 39.9138 39.789C39.0062 39.8866 38.4754 40.1999 37.7078 40.6314C38.1454 39.2647 39.3371 38.2482 40.7085 37.5624C42.8629 36.5708 45.2232 36.7883 47.354 37.7429Z" fill="#E76E12"/>
<path d="M60.2612 20.7371C60.567 20.8785 60.8689 21.0268 61.1656 21.1824C61.3026 21.2499 61.4397 21.3175 61.5809 21.387C62.9065 22.1176 63.6643 23.2191 64.317 24.444C64.5123 25.2845 64.4886 26.1049 64.454 26.9594C63.9295 27.1814 63.4042 27.4018 62.8783 27.6214C62.7306 27.684 62.583 27.7467 62.4308 27.8113C61.6465 28.1373 60.9382 28.3947 60.0694 28.5C59.1262 26.8346 58.378 25.4897 58.5219 23.5888C58.5436 22.7774 58.1621 22.2537 57.5893 21.6488C57.1312 21.3097 56.777 21.2432 56.1917 21.1463C55.926 21.1005 55.926 21.1005 55.6548 21.0538C55.52 21.0327 55.3852 21.0116 55.2463 20.9899C56.4201 19.9588 58.8362 20.2019 60.2612 20.7371Z" fill="#E76E12"/>
<path d="M97.3387 57.1921C98.0183 57.4461 98.6926 57.7094 99.3666 57.9744C99.558 58.0458 99.7493 58.1172 99.9464 58.1907C101.255 58.7127 101.78 59.1274 102.381 60.2732C103.182 60.8966 103.931 60.9368 104.962 60.9096C105.65 60.8269 106.179 60.5904 106.766 60.2732C106.286 61.5462 105.211 62.2859 103.958 63.0037C102.382 63.6509 100.07 63.6148 98.4323 63.1782C97.2574 62.6883 96.3117 62.0128 95.3657 61.236C95.5008 60.2809 95.9791 59.5151 96.4755 58.6725C96.5995 58.4586 96.5995 58.4586 96.726 58.2403C96.9291 57.8904 97.1337 57.5412 97.3387 57.1921Z" fill="#E76E12"/>
<path d="M48.4501 57.3848C48.8523 57.8926 49.1192 58.4425 49.3956 59.0096C49.4743 59.1617 49.553 59.3137 49.6341 59.4704C50.204 60.5888 50.204 60.5888 50.204 61.0436C48.265 62.0034 46.7146 62.7028 44.4432 62.7398C43.5554 62.7947 43.1716 63.0146 42.5309 63.547C42.0065 64.1831 41.974 64.8981 41.8732 65.6652C40.9878 64.8875 41.137 63.7981 41.1311 62.7492C41.1712 61.1715 41.8454 60.0831 43.0516 58.9494C44.3933 57.87 46.5999 56.688 48.4501 57.3848Z" fill="#E76E12"/>
<path d="M105.45 35.2397C105.595 35.3033 105.74 35.3668 105.889 35.4323C105.998 37.5971 105.976 39.1856 104.423 40.9686C103.294 42.0507 101.519 42.8997 99.8402 42.9642C99.2978 42.9662 98.7578 42.9565 98.2157 42.9424C97.9581 42.3774 97.703 41.8115 97.4483 41.2454C97.3751 41.0849 97.302 40.9245 97.2265 40.7591C97.1227 40.5273 97.1227 40.5273 97.0167 40.2909C96.9524 40.1487 96.8881 40.0065 96.8219 39.86C96.681 39.4762 96.681 39.4762 96.681 38.8985C98.7297 38.1133 100.328 37.6628 102.599 37.7469C103.625 37.741 104.031 37.582 104.793 36.9728C105.098 36.4088 105.295 35.8482 105.45 35.2397Z" fill="#E76E12"/>
<path d="M56.3425 24.2634C57.9554 25.217 59.0398 26.478 59.6309 28.1147C59.6643 28.5961 59.6643 28.5961 59.4117 29.0775C58.8636 29.5074 58.2622 29.8496 57.6442 30.1968C57.3947 30.3419 57.3947 30.3419 57.1402 30.4898C56.73 30.7278 56.318 30.9629 55.904 31.1958C54.716 30.1808 53.1974 28.6802 53.1088 27.1759C53.1068 27.0412 53.1048 26.9064 53.1028 26.7675C53.0119 26.0487 52.514 25.5424 51.9578 25.0336C51.2361 24.5688 50.4216 24.5447 49.5463 24.4559C51.5104 22.9961 54.2072 23.1951 56.3425 24.2634Z" fill="#E76E12"/>
<path d="M94.9272 61.4287C95.3451 61.704 95.7626 61.9797 96.1783 62.2576C96.4953 62.4635 96.8185 62.6623 97.1495 62.8504C98.2799 63.5123 98.7246 64.1611 99.2836 65.2387C99.5164 65.6989 99.5164 65.6989 100.024 66.0744C101.173 66.3954 102.325 66.335 103.477 66.0503C103.477 66.1774 103.477 66.3045 103.477 66.4354C103.044 66.7544 103.044 66.7544 102.463 67.1094C102.275 67.2266 102.087 67.3438 101.893 67.4645C100.184 68.361 98.1952 68.4288 96.2751 68.0429C94.4243 67.4565 93.0631 66.3743 92.0772 64.8949C92.4565 64.1238 93.0404 63.4932 93.6255 62.8369C93.7262 62.7225 93.827 62.6082 93.9308 62.4905C94.6687 61.6557 94.6687 61.6557 94.9272 61.4287Z" fill="#E76E12"/>
<path d="M96.681 24.8411C97.8376 25.7471 98.3629 26.474 98.5051 27.8131C98.5729 29.7843 98.2723 31.2435 96.8592 32.7965C96.0684 33.5314 95.1558 34.1554 94.0503 34.4694C93.3701 34.4356 93.0569 34.3587 92.5499 33.9549C92.4301 33.8228 92.3103 33.6908 92.1868 33.5547C91.5959 32.9232 90.9911 32.3422 90.3233 31.7735C90.6343 31.1314 91.0028 30.7729 91.6113 30.3292C92.1023 29.9683 92.5344 29.6361 92.9541 29.2099C93.4974 28.8072 94.0159 28.7456 94.7003 28.6209C95.4583 28.4152 95.8983 28.0199 96.4618 27.537C96.7648 27.0046 96.7019 26.5653 96.6947 25.9724C96.6928 25.7614 96.6908 25.5504 96.6888 25.333C96.6862 25.1707 96.6837 25.0083 96.681 24.8411Z" fill="#E76E12"/>
<path d="M91.2003 65.28C92.2096 65.4003 92.6871 65.9848 93.3241 66.628C93.4333 66.7357 93.5425 66.8435 93.655 66.9545C93.9341 67.2299 94.2115 67.5065 94.4887 67.7834C94.5611 67.8469 94.6334 67.9105 94.708 67.976C94.767 68.2802 94.821 68.5853 94.8724 68.8907C95.0712 69.8155 95.3763 70.2748 96.2426 70.8645C96.746 71.0856 97.1364 71.1163 97.695 71.1653C97.9637 71.1895 97.9637 71.1895 98.2379 71.2142C98.4439 71.2317 98.4439 71.2317 98.6541 71.2496C97.7463 72.107 96.7703 72.357 95.4736 72.4749C93.084 72.5492 91.5611 72.1371 89.8027 70.72C88.8676 69.8438 88.131 68.8173 88.131 67.5908C88.6354 67.1756 88.6354 67.1756 89.2957 66.7243C90.1418 66.157 90.1418 66.157 90.8945 65.5027C90.9954 65.4292 91.0963 65.3557 91.2003 65.28Z" fill="#E76E12"/>
<path d="M43.0378 42.2683C43.2816 42.2685 43.2816 42.2685 43.5302 42.2687C44.9198 42.3017 45.9824 42.6311 47.1347 43.3275C47.1091 43.6726 47.0812 44.0176 47.0525 44.3625C47.0373 44.5546 47.022 44.7468 47.0063 44.9447C46.8904 45.83 46.6879 46.6928 46.477 47.5639C45.7315 47.4945 44.9877 47.4157 44.2436 47.3352C44.0332 47.3158 43.8228 47.2963 43.606 47.2762C42.2955 47.1288 41.6481 46.9549 40.777 46.0234C39.7271 45.716 38.7666 45.6706 37.7626 46.0715C37.263 46.4128 36.8235 46.7721 36.3924 47.1788C36.472 45.8502 37.2766 44.6517 38.3501 43.7374C39.8174 42.7319 41.188 42.2551 43.0378 42.2683Z" fill="#E76E12"/>
<path d="M52.3637 28.2013C53.6424 29.012 54.5937 29.93 55.2463 31.1959C55.1858 31.9661 54.6849 32.3206 54.0679 32.8327C53.4468 33.3516 52.8906 33.8532 52.3963 34.4695C51.4747 34.1385 50.7976 33.5785 50.0669 33.0012C49.9386 32.9056 49.8103 32.81 49.6782 32.7116C48.7032 31.9396 48.4879 31.3547 48.2309 30.233C47.369 29.3652 46.7043 29.1586 45.4134 29.0671C44.9322 29.0779 44.5261 29.1512 44.0655 29.2702C46.0498 27.1786 49.7351 26.8397 52.3637 28.2013Z" fill="#E76E12"/>
<path d="M107.862 41.5942C107.934 41.5942 108.007 41.5942 108.081 41.5942C108.2 43.211 107.842 44.5777 106.711 45.8909C104.909 47.4379 103.105 47.8015 100.625 47.7887C100.071 47.7614 99.6225 47.6895 99.0926 47.5638C98.9821 47.0023 98.8726 46.4406 98.7637 45.8788C98.7324 45.72 98.701 45.5611 98.6687 45.3974C98.6242 45.1666 98.6242 45.1666 98.5787 44.9311C98.5512 44.7899 98.5236 44.6487 98.4952 44.5032C98.4349 44.0976 98.4349 44.0976 98.4349 43.3273C102.793 42.7252 102.793 42.7252 103.682 43.14C104.479 43.4697 105.27 43.2942 106.108 43.1348C107.039 42.7792 107.385 42.3689 107.862 41.5942Z" fill="#E76D12"/>
<path d="M102.162 96.8608C103.669 97.1645 104.859 97.5432 105.889 98.5939C106.4 99.3174 106.37 99.839 106.243 100.663C106.022 101.375 105.61 101.74 105.012 102.253C104.356 102.541 103.762 102.468 103.039 102.445C102.822 102.382 102.605 102.318 102.381 102.253C101.799 98.319 101.799 98.319 101.943 97.0534C102.015 96.9899 102.087 96.9263 102.162 96.8608Z" fill="#E9E9E8"/>
<path d="M117.289 94.7427C117.703 94.851 117.703 94.851 118.166 95.1278C118.395 95.7296 118.395 95.7296 118.549 96.4758C118.576 96.6047 118.603 96.7337 118.631 96.8666C118.833 97.8981 118.899 98.8988 118.823 99.942C117.806 99.6632 117.14 99.1443 116.384 98.5098C116.269 98.4153 116.154 98.3209 116.036 98.2235C115.494 97.7774 114.959 97.326 114.439 96.8609C114.468 97.0121 114.497 97.1633 114.527 97.319C114.731 98.3845 114.93 99.4491 115.096 100.52C114.807 100.583 114.518 100.647 114.22 100.712C114.147 100.14 114.075 99.5684 114 98.9791C112.802 99.2137 112.802 99.2137 111.984 99.9382C111.781 100.409 111.781 100.409 111.589 101.097C111.444 101.097 111.299 101.097 111.15 101.097C111.157 99.7479 111.471 98.5742 112 97.3183C112.084 97.1129 112.084 97.1129 112.17 96.9034C112.321 96.5607 112.501 96.2281 112.685 95.8981C112.902 95.8345 113.119 95.771 113.343 95.7055C113.343 95.5784 113.343 95.4513 113.343 95.3204C114.245 95.4166 114.573 95.8052 115.138 96.4036C116.053 97.3336 117.029 98.0736 118.166 98.7866C118.102 98.5592 118.039 98.3318 117.974 98.0975C117.892 97.7977 117.809 97.4978 117.727 97.1979C117.685 97.0482 117.644 96.8985 117.6 96.7443C117.541 96.5265 117.541 96.5265 117.481 96.3043C117.444 96.1712 117.407 96.038 117.369 95.9009C117.289 95.5129 117.289 95.5129 117.289 94.7427Z" fill="#F1F1F0"/>
<path d="M63.7963 63.7395C64.0857 63.803 64.3751 63.8666 64.6733 63.9321C64.6733 64.8217 64.6733 65.7114 64.6733 66.628C64.9853 66.3103 65.2973 65.9925 65.6187 65.6652C66.1505 65.1236 66.1505 65.1236 66.6463 64.7023C66.8634 64.7023 67.0804 64.7023 67.304 64.7023C67.304 65.7191 67.304 66.7358 67.304 67.7834C68.0275 67.0208 68.751 66.2583 69.4964 65.4726C69.7857 65.5361 70.0751 65.5997 70.3733 65.6652C70.0247 66.361 69.5387 66.8978 68.9894 67.4825C68.8229 67.661 68.6565 67.8395 68.485 68.0234C67.9642 68.5512 67.4642 69.0559 66.8656 69.5165C66.5762 69.5165 66.2868 69.5165 65.9887 69.5165C65.9887 68.6268 65.9887 67.7372 65.9887 66.8206C65.4099 67.456 64.8311 68.0915 64.2348 68.7462C63.9454 68.6827 63.656 68.6191 63.3579 68.5537C63.3882 67.7874 63.4208 67.0211 63.4538 66.2549C63.4624 66.0361 63.471 65.8173 63.4799 65.5918C63.4891 65.3839 63.4983 65.176 63.5077 64.9618C63.5158 64.7692 63.5238 64.5766 63.5321 64.3782C63.5771 63.9321 63.5771 63.9321 63.7963 63.7395Z" fill="#F1F1F1"/>
<path d="M97.7772 97.246C98.0917 97.2362 98.4063 97.2292 98.7209 97.2234C98.8961 97.2192 99.0713 97.215 99.2518 97.2107C99.7503 97.246 99.7503 97.246 100.435 97.607C100.965 98.3829 100.85 98.8267 100.649 99.6906C100.567 100.15 100.567 100.15 100.948 100.446C101.059 100.534 101.17 100.622 101.285 100.712C101.269 101.393 101.219 101.737 100.655 102.217C99.7543 102.658 99.0128 102.671 97.9964 102.638C97.7772 102.445 97.7772 102.445 97.7523 101.946C97.7535 101.729 97.7546 101.512 97.7558 101.289C97.7565 101.055 97.7572 100.821 97.7579 100.58C97.7598 100.334 97.7616 100.087 97.7635 99.8336C97.7645 99.5865 97.7655 99.3393 97.7665 99.0847C97.7691 98.4718 97.7727 97.8589 97.7772 97.246Z" fill="#F2F2F2"/>
<path d="M57.0002 56.9996C57.7034 57.7055 57.7735 58.3886 57.7341 59.2923C57.6579 59.6955 57.6579 59.6955 57.3016 60.1889C56.6444 60.5384 56.2212 60.5395 55.4655 60.4658C55.3932 60.4022 55.3208 60.3387 55.2463 60.2732C55.1016 60.7816 54.9569 61.2899 54.8078 61.8137C54.5185 61.8137 54.2291 61.8137 53.9309 61.8137C53.9309 60.9241 53.9309 60.0344 53.9309 59.1178C53.7139 59.2449 53.4968 59.372 53.2732 59.5029C52.9838 59.5029 52.6945 59.5029 52.3963 59.5029C52.4792 59.0322 52.542 58.7917 52.9485 58.4654C53.4068 58.2109 53.865 57.9571 54.3283 57.7097C54.4872 57.6197 54.6462 57.5297 54.81 57.437C54.9644 57.3529 55.1189 57.2689 55.278 57.1824C55.4894 57.0672 55.4894 57.0672 55.7052 56.9497C56.2328 56.7696 56.4799 56.8169 57.0002 56.9996Z" fill="#EEEEEE"/>
<path d="M72.1682 27.874C73.256 27.9367 73.9566 28.1812 74.7305 28.8609C75.0366 29.3687 75.0764 29.666 74.9771 30.233C74.6757 30.582 74.6757 30.582 74.3194 30.8107C74.1747 30.8107 74.0301 30.8107 73.881 30.8107C73.881 30.9378 73.881 31.0648 73.881 31.1958C74.0845 31.2792 74.0845 31.2792 74.292 31.3643C74.7579 31.5809 74.7579 31.5809 75.1964 31.9661C75.1964 32.1567 75.1964 32.3473 75.1964 32.5438C74.2014 32.4409 73.598 32.0778 72.7848 31.5809C72.5678 31.5174 72.3507 31.4538 72.1271 31.3884C72.1271 31.7696 72.1271 32.1509 72.1271 32.5438C71.8377 32.5438 71.5484 32.5438 71.2502 32.5438C71.2439 31.8096 71.2399 31.0755 71.2365 30.3413C71.2347 30.1317 71.2328 29.922 71.2309 29.706C71.2302 29.5068 71.2295 29.3076 71.2288 29.1024C71.2276 28.9178 71.2265 28.7333 71.2253 28.5432C71.2648 27.8634 71.374 27.9287 72.1682 27.874Z" fill="#F5F5F5"/>
<path d="M40.777 96.8608C40.9941 96.9244 41.2111 96.9879 41.4347 97.0534C41.5794 98.0702 41.7241 99.0869 41.8732 100.134C42.5526 99.5377 42.6662 98.7675 42.9265 97.9681C43.1886 97.4385 43.1886 97.4385 43.6562 97.1738C43.7912 97.134 43.9263 97.0943 44.0655 97.0534C44.8881 98.4985 44.5341 101.057 44.504 102.638C44.3593 102.638 44.2146 102.638 44.0655 102.638C43.7333 102.054 43.7042 101.425 43.6133 100.784C43.5934 100.648 43.5735 100.512 43.553 100.372C43.5039 100.036 43.4557 99.7002 43.4078 99.3642C43.3389 99.5404 43.2699 99.7167 43.1989 99.8983C43.105 100.127 43.0112 100.356 42.9145 100.592C42.823 100.82 42.7314 101.048 42.6371 101.282C42.3117 101.868 42.3117 101.868 41.8355 102.14C41.7032 102.177 41.571 102.214 41.4347 102.253C40.982 101.855 41.0548 101.058 40.9826 100.508C40.9147 100.003 40.8469 99.4988 40.777 98.9791C40.4153 99.9958 40.0536 101.013 39.6809 102.06C39.5362 102.06 39.3915 102.06 39.2424 102.06C39.1662 100.817 39.4112 99.8685 39.8864 98.7023C39.9473 98.5455 40.0082 98.3887 40.071 98.2272C40.5206 97.0861 40.5206 97.0861 40.777 96.8608Z" fill="#EEEEED"/>
<path d="M54.3694 35.6248C55.4438 35.7272 56.1647 36.1577 57.0413 36.6718C57.179 36.7504 57.3168 36.829 57.4587 36.9099C58.0069 37.2256 58.5085 37.5274 58.9732 37.9356C58.9009 38.1897 58.8285 38.4439 58.754 38.7058C57.3071 38.96 55.8601 39.2142 54.3694 39.4761C54.9331 39.802 55.4969 40.128 56.0607 40.454C56.586 40.842 56.7114 41.0068 56.7809 41.5943C55.7292 41.5943 55.207 41.2603 54.3694 40.7639C54.1667 40.6471 54.1667 40.6471 53.96 40.5281C53.2759 40.1315 52.6068 39.7239 51.9578 39.2835C52.0863 38.9059 52.0863 38.9059 52.3963 38.5133C53.0488 38.4094 53.0488 38.4094 53.8487 38.3929C55.0437 38.3486 56.0765 38.2367 57.2194 37.9356C56.9108 37.7821 56.9108 37.7821 56.5959 37.6256C56.3287 37.4884 56.0615 37.351 55.7944 37.2134C55.6584 37.1464 55.5225 37.0794 55.3825 37.0103C54.9928 36.8072 54.9928 36.8072 54.3694 36.395C54.3694 36.1408 54.3694 35.8866 54.3694 35.6248Z" fill="#F0F0F0"/>
<path d="M69.4963 28.1146C69.4963 28.3688 69.4963 28.623 69.4963 28.8849C68.6282 29.012 67.76 29.139 66.8656 29.27C66.9379 29.6513 67.0103 30.0326 67.0848 30.4254C67.2702 30.3618 67.4556 30.2983 67.6466 30.2328C68.4462 30.0285 69.1067 30.0112 69.9348 30.0403C69.9348 30.2309 69.9348 30.4215 69.9348 30.618C68.7411 30.9992 68.7411 30.9992 67.5233 31.3882C67.5233 31.7695 67.5233 32.1508 67.5233 32.5436C68.3914 32.4165 69.2596 32.2894 70.154 32.1585C70.2264 32.4127 70.2987 32.6669 70.3733 32.9288C69.3077 33.4279 68.2571 33.3499 67.0848 33.3139C66.5373 32.4449 66.2658 31.6525 66.0572 30.6781C66.0287 30.5504 66.0003 30.4227 65.9711 30.2911C65.8535 29.7485 65.7694 29.2459 65.7694 28.6923C67.0714 28.1932 68.0803 28.0369 69.4963 28.1146Z" fill="#F0F0F1"/>
<path d="M81.9925 98.209C83.0765 98.447 83.1477 98.6726 83.719 99.4847C84.4003 100.447 85.0761 101.176 85.9387 102.06C85.9387 100.789 85.9387 99.5184 85.9387 98.209C86.1557 98.209 86.3728 98.209 86.5964 98.209C86.8882 98.7216 86.8403 99.1116 86.837 99.6848C86.8363 99.9008 86.8356 100.117 86.8349 100.339C86.833 100.566 86.8312 100.792 86.8293 101.025C86.8283 101.253 86.8273 101.481 86.8263 101.716C86.8237 102.28 86.8201 102.844 86.8156 103.408C85.2163 103.116 84.2818 101.643 83.4175 100.508C83.2367 100.258 83.0558 100.007 82.8694 99.7495C82.7971 101.02 82.7248 102.291 82.6502 103.601C82.4332 103.601 82.2161 103.601 81.9925 103.601C81.9925 101.822 81.9925 100.042 81.9925 98.209Z" fill="#EEEEEE"/>
<path d="M80.0195 28.8849C80.5812 29.1737 80.5812 29.1737 80.8964 29.4626C80.824 29.6532 80.7517 29.8439 80.6772 30.0403C79.4834 29.945 79.4834 29.945 78.2656 29.8477C78.2656 29.9748 78.2656 30.1019 78.2656 30.2329C78.5053 30.3163 78.7449 30.3997 78.9918 30.4856C80.122 30.9197 80.122 30.9197 80.4579 31.3883C80.5462 32.0085 80.5955 32.3768 80.1702 32.8927C79.3559 33.396 78.5703 33.3712 77.6079 33.3139C76.8906 33.0524 76.4024 32.8327 75.8541 32.3511C75.9363 31.8456 75.9363 31.8456 76.0733 31.3883C76.9228 31.7252 76.9228 31.7252 77.1695 32.1585C77.686 32.2486 77.686 32.2486 78.2793 32.2789C78.4808 32.2933 78.6823 32.3077 78.8899 32.3225C79.0456 32.3319 79.2013 32.3414 79.3618 32.3511C79.3618 32.0334 79.3618 31.7156 79.3618 31.3883C79.208 31.3724 79.0543 31.3565 78.8959 31.3401C78.1225 31.1629 77.5945 30.8334 76.9502 30.4254C77.0177 29.877 77.0938 29.5429 77.4983 29.1136C78.3276 28.7676 79.1175 28.7715 80.0195 28.8849Z" fill="#EEEEEE"/>
<path d="M50.204 51.9929C50.421 52.0564 50.6381 52.12 50.8617 52.1854C50.8541 52.3839 50.8541 52.3839 50.8463 52.5864C50.8423 52.7599 50.8384 52.9334 50.8343 53.1122C50.8266 53.3702 50.8266 53.3702 50.8189 53.6334C50.8216 54.16 50.8216 54.16 51.3001 54.6888C51.7516 54.8282 51.7516 54.8282 52.1771 54.8814C52.1745 54.689 52.172 54.4966 52.1694 54.2984C52.1674 54.0499 52.1654 53.8014 52.1634 53.5454C52.1608 53.2975 52.1583 53.0495 52.1557 52.794C52.1771 52.1854 52.1771 52.1854 52.3963 51.9929C53.241 51.9086 53.6111 51.934 54.3283 52.3539C55.0152 52.94 55.0152 52.94 55.0485 53.5229C55.0414 53.9115 55.0342 54.3002 55.0271 54.6888C54.7377 54.6252 54.4483 54.5617 54.1502 54.4962C54.0914 54.2818 54.0326 54.0673 53.972 53.8463C53.7866 53.1062 53.7866 53.1062 53.054 52.7631C53.0654 53.0241 53.0654 53.0241 53.0771 53.2904C53.0831 53.5176 53.089 53.7447 53.0951 53.9787C53.1027 54.2043 53.1104 54.43 53.1182 54.6625C53.054 55.2665 53.054 55.2665 52.762 55.6291C52.1627 55.9816 51.7822 55.9551 51.0809 55.8442C50.1375 55.0344 49.6111 54.2952 49.4778 53.1242C49.5463 52.5706 49.5463 52.5706 49.8751 52.2095C49.9837 52.138 50.0922 52.0665 50.204 51.9929Z" fill="#EEEEEE"/>
<path d="M93.7899 41.8953C94.7105 42.0062 95.0008 42.3267 95.5849 42.9423C95.909 43.5117 95.8173 44.0481 95.8041 44.6754C95.5147 44.6754 95.2253 44.6754 94.9272 44.6754C94.8729 44.4292 94.8187 44.183 94.7628 43.9292C94.594 43.276 94.594 43.276 94.0229 42.8461C93.8872 42.8143 93.7516 42.7825 93.6118 42.7498C93.6468 42.8588 93.6819 42.9677 93.718 43.08C93.8336 43.5302 93.8752 43.9376 93.8858 44.3986C93.8915 44.5458 93.8971 44.693 93.903 44.8447C93.8124 45.3591 93.6416 45.5209 93.1733 45.8308C92.5431 45.9271 92.5431 45.9271 91.858 45.8308C91.0669 45.2782 90.5802 44.7667 90.3233 43.9052C90.2685 43.1951 90.2685 43.1951 90.3233 42.5572C90.468 42.4301 90.6127 42.303 90.7618 42.1721C91.0512 42.1721 91.3406 42.1721 91.6387 42.1721C91.6153 42.2882 91.5918 42.4044 91.5676 42.5241C91.385 43.48 91.385 43.48 91.6798 44.3866C92.1141 44.7023 92.4119 44.7655 92.9541 44.868C92.9332 44.6918 92.9123 44.5155 92.8907 44.3339C92.8664 44.1051 92.8421 43.8762 92.8171 43.6404C92.7917 43.4125 92.7662 43.1846 92.74 42.9499C92.7383 42.7567 92.7366 42.5636 92.7349 42.3646C93.1733 41.9795 93.1733 41.9795 93.7899 41.8953Z" fill="#F3F3F3"/>
<path d="M74.9223 98.1367C75.6877 98.1464 75.849 98.2058 76.5117 98.6181C76.9502 99.1718 76.9502 99.1718 77.0872 99.7374C76.8985 100.55 76.5469 100.927 75.854 101.483C75.1278 101.555 75.1278 101.555 74.5387 101.483C74.5387 102.118 74.5387 102.753 74.5387 103.408C74.3216 103.472 74.1046 103.535 73.881 103.601C73.8746 102.738 73.8707 101.876 73.8673 101.013C73.8654 100.767 73.8636 100.52 73.8617 100.267C73.861 100.033 73.8603 99.7987 73.8596 99.5576C73.8584 99.3408 73.8573 99.124 73.8561 98.9006C73.8953 98.1149 73.9879 98.2188 74.9223 98.1367Z" fill="#EEEDED"/>
<path d="M89.8849 97.7637C90.5426 97.8238 90.5426 97.8238 91.2003 98.209C91.2003 98.3996 91.2003 98.5903 91.2003 98.7867C90.6215 98.7231 90.0427 98.6596 89.4464 98.5941C88.6008 99.8647 88.1899 100.774 88.3503 102.253C88.5928 102.506 88.5928 102.506 89.1998 102.506C89.8969 102.509 89.8969 102.509 90.2822 102.096C90.5689 101.662 90.5689 101.662 90.7618 101.097C90.1107 101.225 89.4596 101.352 88.7887 101.483C88.8611 101.228 88.9334 100.974 89.008 100.712C89.8974 100.349 90.6665 100.287 91.6387 100.327C91.955 101.161 91.6219 101.677 91.2003 102.445C90.8068 102.964 90.5369 103.16 89.8592 103.338C88.9912 103.475 88.5317 103.517 87.7885 103.071C87.236 101.974 87.2329 100.912 87.6977 99.7819C88.7508 97.8674 88.7508 97.8674 89.8849 97.7637Z" fill="#EFEEEE"/>
<path d="M51.0809 41.2092C52.756 41.3052 54.2405 41.8315 55.397 42.9183C55.761 43.6794 55.7313 44.08 55.4655 44.868C55.1641 45.3374 55.1641 45.3374 54.5886 45.6383C53.1623 45.8181 51.4577 45.7469 50.204 45.0606C50.0413 44.6544 50.0413 44.6544 49.9847 44.2903C50.3046 44.3175 50.6242 44.3458 50.9439 44.3745C51.2109 44.398 51.2109 44.398 51.4834 44.4219C51.9578 44.4829 51.9578 44.4829 52.3963 44.6754C52.7705 44.6889 53.1453 44.6917 53.5198 44.6875C53.7194 44.6857 53.9189 44.684 54.1244 44.6822C54.2776 44.68 54.4308 44.6777 54.5886 44.6754C54.6547 44.0323 54.6547 44.0323 54.3694 43.3275C53.6884 42.9044 52.9457 42.6426 52.1771 42.3646C51.9108 42.2507 51.6456 42.1348 51.3823 42.0156C51.2105 41.9401 51.0387 41.8647 50.8617 41.7869C50.934 41.5963 51.0064 41.4056 51.0809 41.2092Z" fill="#EFEFEF"/>
<path d="M79.7317 97.9922C79.9839 97.9915 79.9839 97.9915 80.2413 97.9907C80.6771 98.0163 80.6771 98.0163 81.1156 98.2089C81.1156 98.3995 81.1156 98.5901 81.1156 98.7866C80.2475 98.7866 79.3793 98.7866 78.4848 98.7866C78.4848 99.3585 78.4848 99.9304 78.4848 100.52C79.353 100.52 80.2211 100.52 81.1156 100.52C81.0433 100.71 80.9709 100.901 80.8964 101.097C80.0906 101.409 79.1267 101.303 78.2656 101.29C78.3379 101.862 78.4103 102.434 78.4848 103.023C79.353 103.087 80.2211 103.15 81.1156 103.216C81.0433 103.406 80.9709 103.597 80.8964 103.793C80.4306 103.809 79.9647 103.82 79.4988 103.829C79.2393 103.836 78.9799 103.843 78.7126 103.85C78.3828 103.822 78.3828 103.822 78.0464 103.793C77.5358 103.121 77.5563 102.857 77.5651 102.064C77.5665 101.84 77.5679 101.616 77.5694 101.385C77.573 101.151 77.5767 100.917 77.5805 100.676C77.5825 100.44 77.5845 100.204 77.5865 99.9604C77.5917 99.3765 77.5989 98.7927 77.6079 98.2089C78.33 98.0762 78.9931 97.99 79.7317 97.9922Z" fill="#EAE9E9"/>
<path d="M85.281 61.2361C86.1567 61.5676 86.8677 62.0814 87.6103 62.5961C88.4864 63.2237 88.4864 63.2237 89.4464 63.7394C89.4464 63.9301 89.4464 64.1207 89.4464 64.3171C88.6516 64.3559 88.1606 64.2898 87.4733 63.932C86.9938 64.2074 86.9938 64.2074 86.5964 64.7023C86.5187 65.2854 86.5452 65.8509 86.5964 66.4354C86.307 66.3718 86.0176 66.3083 85.7195 66.2428C85.3231 65.1828 85.1867 64.2015 85.1303 63.0895C85.12 62.9319 85.1096 62.7743 85.099 62.6119C85.0763 62.2178 85.0678 61.8232 85.0618 61.4287C85.1341 61.3651 85.2065 61.3016 85.281 61.2361Z" fill="#E5E5E6"/>
<path d="M90.0741 37.9589C90.2684 37.9682 90.4627 37.9775 90.6629 37.9871C90.8628 37.9979 91.0627 38.0087 91.2687 38.0198C91.575 38.0349 91.575 38.0349 91.8875 38.0503C92.3893 38.0752 92.8909 38.1012 93.3926 38.1282C93.2088 38.9477 92.7949 39.2848 92.1046 39.8613C91.3105 40.5203 91.3105 40.5203 90.6367 41.2694C90.5333 41.3766 90.4299 41.4839 90.3233 41.5944C90.0339 41.5944 89.7445 41.5944 89.4464 41.5944C89.5628 41.1343 89.6978 40.7676 89.9397 40.3427C90.1638 39.8636 90.1638 39.8636 89.9123 39.416C89.1907 38.9126 88.597 39.0389 87.6925 39.091C87.7649 38.7733 87.8372 38.4555 87.9118 38.1282C88.6578 37.9767 89.3104 37.92 90.0741 37.9589Z" fill="#E8E8E8"/>
<path d="M91.4195 51.8003C93.0835 51.8003 94.7474 51.8003 96.4618 51.8003C96.4618 51.9909 96.4618 52.1816 96.4618 52.378C95.9554 52.5051 95.449 52.6322 94.9272 52.7631C94.8664 53.5375 94.8664 53.5375 94.9272 54.3037C95.3438 54.6586 95.3438 54.6586 95.8041 54.8814C95.8041 55.072 95.8041 55.2626 95.8041 55.4591C94.6032 55.3855 94.1837 55.0813 93.3926 54.3037C93.2439 54.1808 93.0953 54.0579 92.9421 53.9313C92.7833 53.8 92.6245 53.6687 92.4608 53.5334C92.3105 53.4103 92.1602 53.2871 92.0053 53.1603C91.6387 52.7631 91.6387 52.7631 91.4195 51.8003Z" fill="#EAEAEA"/>
<path d="M64.454 98.4014C64.6711 98.4649 64.8881 98.5285 65.1117 98.5939C65.2595 99.2476 65.4051 99.9016 65.5502 100.556C65.592 100.741 65.6338 100.925 65.6769 101.116C65.7363 101.385 65.7363 101.385 65.7968 101.659C65.8335 101.824 65.8703 101.988 65.9081 102.157C65.9899 102.646 66.0027 103.108 65.9886 103.601C65.3309 103.408 65.3309 103.408 65.1228 103.052C65.0694 102.912 65.016 102.771 64.961 102.626C64.9059 102.485 64.8508 102.343 64.794 102.198C64.7542 102.089 64.7143 101.98 64.6733 101.868C63.8051 101.963 63.8051 101.963 62.9194 102.06C62.7747 102.505 62.63 102.95 62.4809 103.408C62.2639 103.408 62.0469 103.408 61.8232 103.408C62.0467 102.001 62.6629 100.979 63.4949 99.7854C63.587 99.652 63.6791 99.5186 63.7741 99.3811C64 99.0541 64.2269 98.7277 64.454 98.4014Z" fill="#ECECEB"/>
<path d="M55.6848 98.0164C55.8295 98.0799 55.9742 98.1435 56.1232 98.2089C56.2535 98.6075 56.2535 98.6075 56.3579 99.1274C56.396 99.3144 56.4342 99.5015 56.4735 99.6942C56.5117 99.8911 56.5498 100.088 56.5891 100.291C56.629 100.486 56.6688 100.681 56.7099 100.881C56.8691 101.677 57.0002 102.405 57.0002 103.216C56.7831 103.216 56.5661 103.216 56.3425 103.216C56.1978 102.707 56.0531 102.199 55.904 101.675C55.3252 101.675 54.7465 101.675 54.1502 101.675C53.9331 102.12 53.7161 102.565 53.4925 103.023C53.2754 103.023 53.0584 103.023 52.8348 103.023C53.0438 101.707 53.5727 100.736 54.3694 99.6171C54.4474 99.5052 54.5254 99.3934 54.6058 99.2782C54.9343 98.8125 55.2422 98.4051 55.6848 98.0164Z" fill="#EEEDED"/>
<path d="M94.9272 97.8237C95.3657 98.0163 95.3657 98.0163 95.5362 98.3972C95.589 98.5607 95.6418 98.7242 95.6962 98.8926C95.7542 99.071 95.8121 99.2493 95.8718 99.4331C95.9308 99.6209 95.9899 99.8087 96.0508 100.002C96.1419 100.28 96.1419 100.28 96.2349 100.564C96.4894 101.359 96.6811 101.998 96.6811 102.83C96.464 102.83 96.247 102.83 96.0234 102.83C95.8787 102.259 95.734 101.687 95.5849 101.097C94.9338 101.224 94.2827 101.352 93.6118 101.482C93.4671 101.991 93.3224 102.499 93.1733 103.023C92.9563 103.023 92.7393 103.023 92.5157 103.023C92.7365 101.665 93.2479 100.521 93.9544 99.3041C94.0237 99.1823 94.0931 99.0606 94.1646 98.9351C94.6771 98.0434 94.6771 98.0434 94.9272 97.8237Z" fill="#EFEEEE"/>
<path d="M63.3579 29.6553C63.81 29.7395 63.81 29.7395 64.2348 29.8478C64.4094 31.5212 64.4822 33.1743 64.454 34.8546C63.5146 34.7629 63.1072 34.285 62.4809 33.6992C62.2848 33.5381 62.0887 33.377 61.8866 33.211C61.5975 32.9701 61.5975 32.9701 61.3026 32.7243C61.1065 32.5632 60.9103 32.4021 60.7083 32.2361C60.2886 31.7735 60.2886 31.7735 60.3349 31.3289C60.392 31.2215 60.449 31.114 60.5079 31.0032C61.2647 31.2877 61.7464 31.6653 62.3165 32.1827C62.4714 32.3222 62.6263 32.4617 62.7858 32.6055C62.9605 32.7656 62.9605 32.7656 63.1386 32.9289C63.1361 32.7087 63.1336 32.4885 63.1309 32.2617C63.1289 31.9746 63.1269 31.6875 63.1249 31.4004C63.1231 31.2551 63.1213 31.1097 63.1194 30.96C63.1175 30.5892 63.1272 30.2185 63.1386 29.8478C63.211 29.7843 63.2833 29.7207 63.3579 29.6553Z" fill="#F0F0F0"/>
<path d="M58.9227 32.6016C59.0841 32.6461 59.2455 32.6905 59.4117 32.7363C59.1925 33.314 59.1925 33.314 58.754 33.5065C59.1213 34.269 59.6075 34.8605 60.2886 35.4322C61.1108 35.4371 61.1108 35.4371 61.8233 35.2396C61.8233 36.0099 61.8233 36.0099 61.4704 36.4289C61.3156 36.5647 61.1607 36.7005 61.0011 36.8403C60.8485 36.9786 60.6959 37.1169 60.5387 37.2593C60.0694 37.5504 60.0694 37.5504 59.5727 37.4985C59.4472 37.4521 59.3218 37.4057 59.1925 37.3579C59.2603 37.1672 59.3281 36.9766 59.398 36.7802C59.4868 36.2514 59.4333 36.0436 59.1308 35.5706C58.7402 35.1433 58.3796 34.7948 57.8771 34.4694C57.14 34.4293 57.14 34.4293 56.5617 34.6619C56.5617 33.8917 56.5617 33.8917 56.9068 33.5148C57.0597 33.3969 57.2126 33.279 57.3701 33.1575C57.5202 33.0371 57.6702 32.9167 57.8249 32.7927C58.3156 32.5437 58.3156 32.5437 58.9227 32.6016Z" fill="#EEEFEF"/>
<path d="M72.1271 65.6653C73.2123 65.6653 74.2975 65.6653 75.4156 65.6653C75.4156 65.9195 75.4156 66.1737 75.4156 66.4355C75.0539 66.4355 74.6921 66.4355 74.3194 66.4355C74.3194 67.3888 74.3194 68.342 74.3194 69.324C74.7535 69.324 75.1876 69.324 75.6348 69.324C75.5625 69.5782 75.4901 69.8324 75.4156 70.0943C74.3304 70.0943 73.2452 70.0943 72.1271 70.0943C72.1995 69.8401 72.2718 69.5859 72.3464 69.324C72.6358 69.324 72.9251 69.324 73.2233 69.324C73.2233 68.3708 73.2233 67.4176 73.2233 66.4355C72.8616 66.372 72.4998 66.3085 72.1271 66.243C72.1271 66.0523 72.1271 65.8617 72.1271 65.6653Z" fill="#ECEDED"/>
<path d="M82.6502 30.0403C83.9167 30.0959 84.8453 30.6048 85.7195 31.3882C85.7195 31.5789 85.7195 31.7695 85.7195 31.9659C84.6781 31.7975 84.6781 31.7975 84.1848 31.5808C84.1351 31.7079 84.0854 31.835 84.0341 31.9659C83.6574 32.7222 83.1615 33.3934 82.6502 34.0842C83.1928 34.2748 83.1928 34.2748 83.7464 34.4693C83.7464 34.66 83.7464 34.8506 83.7464 35.047C82.3949 34.9728 81.5571 34.5712 80.4579 33.8916C80.5664 33.6057 80.5664 33.6057 80.6771 33.3139C81.1112 33.3775 81.5453 33.441 81.9925 33.5065C82.0468 33.3397 82.1011 33.1729 82.157 33.001C82.4459 32.3158 82.826 31.7883 83.3079 31.1957C83.1994 31.1123 83.0909 31.0289 82.9791 30.9429C82.6502 30.618 82.6502 30.618 82.6502 30.0403Z" fill="#F1F1F1"/>
<path d="M102.6 97.8237C103.825 98.0389 104.571 98.3992 105.45 99.1717C105.604 99.9875 105.602 100.686 105.108 101.398C104.573 101.675 104.573 101.675 103.039 101.675C102.894 100.404 102.749 99.1332 102.6 97.8237Z" fill="#201B18"/>
<path d="M81.5541 64.1246C81.5541 64.3153 81.5541 64.5059 81.5541 64.7023C81.2647 64.7659 80.9753 64.8294 80.6771 64.8949C80.7404 65.0255 80.8038 65.156 80.869 65.2906C81.4065 66.4741 81.8716 67.6549 81.5541 68.9388C80.7892 69.3867 80.4805 69.4046 79.581 69.3239C79.0603 69.0351 79.0603 69.0351 78.7041 68.7462C78.7764 68.4285 78.8488 68.1108 78.9233 67.7834C79.068 67.7834 79.2127 67.7834 79.3618 67.7834C79.581 67.976 79.8002 68.1685 80.0195 68.3611C80.2365 68.4246 80.4535 68.4882 80.6771 68.5537C80.3878 67.5369 80.0984 66.5202 79.8002 65.4726C79.3661 65.4726 78.9321 65.4726 78.4848 65.4726C78.4848 65.2184 78.4848 64.9642 78.4848 64.7023C79.5656 64.3095 80.3658 64.0464 81.5541 64.1246Z" fill="#F1F1F1"/>
<path d="M59.631 60.8511C60.7988 61.1308 61.4646 61.8295 62.2617 62.5842C62.1894 62.7748 62.117 62.9655 62.0425 63.1619C61.9114 63.1301 61.7802 63.0983 61.6451 63.0656C61.1407 62.9479 61.1407 62.9479 60.5079 62.9693C60.1379 63.309 60.1379 63.309 59.8091 63.7396C59.6349 63.954 59.6349 63.954 59.4571 64.1728C59.3698 64.2841 59.2825 64.3953 59.1925 64.5098C59.2665 64.628 59.3406 64.7462 59.4169 64.8679C59.6715 65.3582 59.6136 65.5538 59.4117 66.0504C58.7605 65.7811 58.1849 65.4715 57.6031 65.0996C57.4482 65.0025 57.2933 64.9055 57.1338 64.8055C57.0173 64.7079 56.9009 64.6103 56.7809 64.5098C56.7809 64.3192 56.7809 64.1286 56.7809 63.9321C57.215 63.9957 57.6491 64.0592 58.0963 64.1247C58.7475 63.3621 59.3986 62.5996 60.0694 61.8139C59.8524 61.7504 59.6353 61.6868 59.4117 61.6213C59.4841 61.3672 59.5564 61.113 59.631 60.8511Z" fill="#F2F2F2"/>
<path d="M46.0386 97.4387C46.1833 97.4387 46.328 97.4387 46.4771 97.4387C46.4819 97.6179 46.4819 97.6179 46.4868 97.8008C46.5031 98.3422 46.5243 98.8833 46.5456 99.4246C46.5505 99.6126 46.5555 99.8006 46.5606 99.9944C46.5683 100.175 46.5761 100.356 46.5841 100.542C46.5899 100.708 46.5956 100.874 46.6015 101.046C46.7143 101.565 46.8768 101.746 47.354 102.06C47.8088 102.089 47.8088 102.089 48.2309 101.868C48.9351 101.053 49.0396 100.29 49.1489 99.3042C49.1669 99.1616 49.1848 99.019 49.2033 98.8721C49.2469 98.5229 49.2873 98.1734 49.3271 97.8239C49.5441 97.7603 49.7612 97.6968 49.9848 97.6313C50.0525 99.3996 50.1194 101.261 48.6694 102.638C47.9158 102.855 47.9158 102.855 47.1348 102.831C46.5205 102.49 46.1449 102.247 45.8194 101.675C45.7984 101.37 45.7907 101.065 45.7903 100.76C45.79 100.579 45.7897 100.399 45.7894 100.213C45.7902 100.024 45.7911 99.8357 45.792 99.6412C45.7911 99.4517 45.7903 99.2622 45.7894 99.0669C45.7897 98.8868 45.79 98.7067 45.7903 98.5212C45.7905 98.3552 45.7907 98.1892 45.791 98.0183C45.8194 97.6313 45.8194 97.6313 46.0386 97.4387Z" fill="#EEEEED"/>
<path d="M89.4464 56.2295C89.7358 56.2295 90.0252 56.2295 90.3233 56.2295C90.8853 56.7524 91.2793 57.3874 91.7072 57.9987C91.8306 58.1651 91.9539 58.3316 92.081 58.5031C92.1965 58.665 92.3119 58.827 92.4308 58.9939C92.5366 59.1421 92.6424 59.2904 92.7514 59.4431C93.0007 59.9907 92.9213 60.2938 92.7349 60.8511C92.5178 60.7875 92.3008 60.724 92.0772 60.6585C91.9325 60.2772 91.7878 59.896 91.6387 59.5031C90.3365 59.5031 89.0342 59.5031 87.6925 59.5031C87.6925 59.2489 87.6925 58.9947 87.6925 58.7329C88.7054 58.7329 89.7182 58.7329 90.7618 58.7329C90.5447 58.427 90.3277 58.1212 90.1041 57.8061C89.4464 56.8794 89.4464 56.8794 89.4464 56.2295Z" fill="#F4F4F4"/>
<path d="M86.8156 32.1587C87.8603 32.2938 88.4298 32.8705 89.1724 33.4826C89.3043 33.5871 89.4363 33.6916 89.5723 33.7993C89.9097 34.0742 90.2278 34.3672 90.5426 34.6621C90.5426 34.8527 90.5426 35.0433 90.5426 35.2398C89.7341 35.1438 89.3138 35.0278 88.7887 34.4695C87.9264 34.722 87.612 35.206 87.1034 35.8295C86.9667 35.9935 86.9667 35.9935 86.8272 36.1608C86.6027 36.4306 86.3801 36.7016 86.1579 36.9729C85.8685 36.9093 85.5792 36.8458 85.281 36.7803C85.4011 35.9749 85.9165 35.5096 86.5005 34.9028C86.6816 34.7131 86.8628 34.5235 87.0494 34.3281C87.1893 34.1841 87.3292 34.0401 87.4733 33.8918C87.4061 33.7736 87.3388 33.6555 87.2695 33.5337C87.0451 33.1396 86.8208 32.7454 86.5964 32.3513C86.6687 32.2877 86.7411 32.2242 86.8156 32.1587Z" fill="#EFEFEF"/>
<path d="M32.0078 95.7056C34.3224 95.8556 34.3224 95.8556 35.2962 96.2833C35.2962 96.4739 35.2962 96.6645 35.2962 96.861C34.7898 96.7974 34.2834 96.7339 33.7616 96.6684C33.7483 96.8518 33.7351 97.0353 33.7214 97.2243C33.703 97.4658 33.6846 97.7073 33.6657 97.9562C33.6479 98.1952 33.6301 98.4343 33.6118 98.6806C33.5545 99.2453 33.4661 99.7753 33.3232 100.327C33.6849 100.327 34.0466 100.327 34.4193 100.327C34.4193 100.581 34.4193 100.836 34.4193 101.097C33.4788 101.034 32.5383 100.97 31.5693 100.905C31.5693 100.651 31.5693 100.396 31.5693 100.135C31.931 100.135 32.2928 100.135 32.6655 100.135C32.6787 99.9673 32.692 99.8 32.7057 99.6276C32.7241 99.4057 32.7425 99.1838 32.7614 98.9551C32.7792 98.7362 32.797 98.5172 32.8153 98.2917C32.8797 97.6786 32.9792 97.0814 33.1039 96.4758C32.7422 96.4123 32.3805 96.3487 32.0078 96.2833C32.0078 96.0926 32.0078 95.902 32.0078 95.7056Z" fill="#EBEBEA"/>
<path d="M108.574 96.2712C108.77 96.2729 108.965 96.2747 109.167 96.2765C109.315 96.2787 109.463 96.2809 109.616 96.2832C109.616 96.5374 109.616 96.7916 109.616 97.0535C109.254 97.0535 108.892 97.0535 108.52 97.0535C108.592 98.2609 108.664 99.4683 108.739 100.712C109.245 100.712 109.752 100.712 110.273 100.712C110.201 100.903 110.129 101.094 110.054 101.29C109.081 101.561 108.23 101.731 107.204 101.675C107.276 101.421 107.349 101.167 107.423 100.905C107.64 100.905 107.857 100.905 108.081 100.905C108.045 100.777 108.009 100.649 107.972 100.517C107.839 99.8209 107.838 99.1412 107.848 98.4376C107.849 98.3041 107.85 98.1707 107.851 98.0333C107.854 97.7067 107.858 97.3801 107.862 97.0535C107.428 97.117 106.994 97.1806 106.546 97.2461C106.546 96.9919 106.546 96.7377 106.546 96.4758C107.238 96.2955 107.854 96.2629 108.574 96.2712Z" fill="#EEEDED"/>
<path d="M67.0848 98.4014C68.4594 98.4014 69.834 98.4014 71.2502 98.4014C71.3226 98.6556 71.3949 98.9097 71.4694 99.1716C70.8183 99.1716 70.1672 99.1716 69.4964 99.1716C69.4964 100.633 69.4964 102.095 69.4964 103.601C69.2793 103.537 69.0623 103.474 68.8387 103.408C68.8387 102.01 68.8387 100.612 68.8387 99.1716C68.2599 99.1716 67.6811 99.1716 67.0848 99.1716C67.0848 98.9174 67.0848 98.6633 67.0848 98.4014Z" fill="#E9E9E9"/>
<path d="M36.1732 96.0906C36.3179 96.1541 36.4626 96.2177 36.6117 96.2831C36.5168 97.9281 36.3766 99.4885 35.954 101.097C36.8221 101.034 37.6903 100.97 38.5847 100.905C38.5124 101.159 38.44 101.413 38.3655 101.675C37.8951 101.68 37.4246 101.684 36.9542 101.687C36.6922 101.689 36.4303 101.692 36.1603 101.694C35.5155 101.675 35.5155 101.675 35.2963 101.482C35.3048 101.006 35.328 100.538 35.3648 100.062C35.3751 99.9237 35.3854 99.7852 35.396 99.6425C35.6502 96.5499 35.6502 96.5499 36.1732 96.0906Z" fill="#EBEBEB"/>
<path d="M58.3155 98.0164C58.4602 98.0164 58.6049 98.0164 58.754 98.0164C58.7795 99.6998 58.7209 101.347 58.5348 103.023C59.4029 102.896 60.2711 102.769 61.1655 102.638C61.0932 102.892 61.0209 103.146 60.9463 103.408C59.978 103.621 59.0886 103.63 58.0963 103.601C57.8771 103.408 57.8771 103.408 57.8688 102.912C57.8778 102.697 57.8867 102.481 57.8959 102.259C57.9055 102.026 57.9151 101.793 57.925 101.553C57.9363 101.307 57.9476 101.062 57.9593 100.809C57.9689 100.563 57.9785 100.318 57.9884 100.065C58.0683 98.2335 58.0683 98.2335 58.3155 98.0164Z" fill="#F7F7F7"/>
<path d="M108.958 88.5806C109.899 88.7077 110.839 88.8348 111.808 88.9657C111.808 88.8386 111.808 88.7115 111.808 88.5806C112.097 88.5806 112.387 88.5806 112.685 88.5806C112.757 88.7077 112.83 88.8348 112.904 88.9657C113.412 89.084 113.412 89.084 114 89.1583C114.603 89.2425 114.603 89.2425 115.096 89.3508C115.169 89.4779 115.241 89.605 115.316 89.736C114.695 89.6759 114.073 89.6157 113.452 89.5554C113.192 89.5303 113.192 89.5303 112.926 89.5047C111.822 89.3973 110.718 89.2816 109.616 89.1583C109.543 90.175 109.471 91.1918 109.396 92.2393C109.686 92.3029 109.975 92.3664 110.273 92.4319C109.839 92.4319 109.405 92.4319 108.958 92.4319C108.958 91.161 108.958 89.89 108.958 88.5806Z" fill="#9F9D9C"/>
<path d="M88.131 100.52C88.2034 100.774 88.2757 101.028 88.3502 101.29C89.544 101.195 89.544 101.195 90.7618 101.097C90.5426 102.06 90.5426 102.06 90.2822 102.409C89.698 102.746 89.2511 102.702 88.5695 102.638C88.131 102.253 88.131 102.253 88.0882 101.836C88.0933 101.68 88.0984 101.523 88.1036 101.362C88.1076 101.205 88.1115 101.047 88.1156 100.885C88.1207 100.765 88.1258 100.644 88.131 100.52Z" fill="#2B2623"/>
<path d="M74.5387 98.7866C75.6348 98.7866 75.6348 98.7866 76.0322 99.0153C76.3891 99.4938 76.4043 99.7662 76.2925 100.327C75.9089 100.676 75.9089 100.676 75.4156 100.905C75.1262 100.905 74.8368 100.905 74.5387 100.905C74.5387 100.206 74.5387 99.5068 74.5387 98.7866Z" fill="#292422"/>
<path d="M34.6385 88.5806C35.4344 88.5806 36.2302 88.5806 37.0501 88.5806C37.0501 89.7244 37.0501 90.8683 37.0501 92.0468C36.9054 92.0468 36.7607 92.0468 36.6116 92.0468C36.5393 91.0936 36.4669 90.1404 36.3924 89.1583C35.1625 89.2854 33.9326 89.4125 32.6655 89.5434C33.2542 89.0263 33.8441 88.954 34.6385 88.7731C34.6385 88.7096 34.6385 88.646 34.6385 88.5806Z" fill="#9E9D97"/>
<path d="M98.4349 97.8237C99.531 97.8237 99.531 97.8237 99.9421 98.0524C100.189 98.4014 100.189 98.4014 100.148 98.8949C99.9695 99.3643 99.9695 99.3643 99.531 99.7494C99.1693 99.7494 98.8076 99.7494 98.4349 99.7494C98.4349 99.1139 98.4349 98.4785 98.4349 97.8237Z" fill="#272320"/>
<path d="M33.3232 20.4121C33.4679 20.4757 33.6126 20.5392 33.7616 20.6047C32.0977 22.0663 30.4337 23.5278 28.7193 25.0337C28.5746 24.9702 28.4299 24.9066 28.2809 24.8411C29.8661 23.2682 31.452 21.7269 33.3232 20.4121Z" fill="#6F6C6A"/>
<path d="M98.4349 100.52C99.086 100.583 99.7371 100.647 100.408 100.712C100.408 100.967 100.408 101.221 100.408 101.483C99.6842 101.977 99.3713 102.06 98.4349 102.06C98.4349 101.552 98.4349 101.044 98.4349 100.52Z" fill="#322E2B"/>
<path d="M56.1232 57.77C56.4658 57.9867 56.4658 57.9867 56.7809 58.3477C56.7124 58.9615 56.7124 58.9615 56.5617 59.5031C56.3447 59.5667 56.1276 59.6302 55.904 59.6957C55.5423 59.3779 55.1806 59.0602 54.8079 58.7329C55.63 57.9867 55.63 57.9867 56.1232 57.77Z" fill="#18191A"/>
<path d="M72.1271 28.6924C72.9648 28.7946 73.4561 28.9807 74.1002 29.4626C73.9555 29.7168 73.8108 29.971 73.6618 30.2329C73.1553 30.2329 72.6489 30.2329 72.1271 30.2329C72.1271 29.7245 72.1271 29.2162 72.1271 28.6924Z" fill="#151617"/>
<path d="M108.958 88.5806C109.464 88.6441 109.971 88.7077 110.493 88.7731C110.493 88.8367 110.493 88.9002 110.493 88.9657C110.131 88.9657 109.769 88.9657 109.396 88.9657C109.396 90.046 109.396 91.1263 109.396 92.2393C109.686 92.3029 109.975 92.3664 110.273 92.4319C109.839 92.4319 109.405 92.4319 108.958 92.4319C108.958 91.161 108.958 89.89 108.958 88.5806Z" fill="#9E9C99"/>
<path d="M52.3963 8.28027C52.541 8.34382 52.6857 8.40737 52.8348 8.47284C51.7496 9.42604 50.6644 10.3792 49.5463 11.3613C49.5463 10.4157 50.3564 9.89599 51.0809 9.24311C51.5075 8.90332 51.9419 8.59181 52.3963 8.28027Z" fill="#696664"/>
<path d="M46.6963 42.5573C46.6239 42.7479 46.5516 42.9385 46.4771 43.135C46.2871 43.0436 46.0972 42.9523 45.9016 42.8581C44.6388 42.3713 43.2308 42.4127 41.8732 42.3647C41.8732 42.3012 41.8732 42.2376 41.8732 42.1721C43.5126 41.9454 45.1712 41.8875 46.6963 42.5573Z" fill="#FAD702"/>
<path d="M34.6385 88.5805C35.1455 88.5444 35.1455 88.5444 35.7347 88.5805C35.9517 88.7712 36.1688 88.9618 36.3924 89.1582C35.1625 89.2853 33.9326 89.4124 32.6655 89.5434C33.2542 89.0262 33.8441 88.954 34.6385 88.7731C34.6385 88.7096 34.6385 88.646 34.6385 88.5805Z" fill="#898786"/>
<path d="M114.028 89.1221C114.223 89.1551 114.418 89.1881 114.619 89.2222C114.776 89.2646 114.934 89.307 115.096 89.3508C115.169 89.4779 115.241 89.605 115.316 89.7359C114.927 89.7139 114.539 89.6893 114.151 89.6637C113.935 89.6503 113.719 89.6369 113.496 89.6231C112.904 89.5433 112.904 89.5433 112.246 89.1582C112.977 88.9444 113.287 88.9902 114.028 89.1221Z" fill="#8D8B89"/>
<path d="M99.9695 52.7632C100.525 52.7807 101.073 52.8088 101.627 52.8474C101.861 52.8625 101.861 52.8625 102.1 52.8779C102.486 52.9029 102.872 52.9292 103.258 52.9558C103.258 53.0193 103.258 53.0828 103.258 53.1483C102.838 53.1912 102.418 53.2307 101.997 53.2687C101.763 53.291 101.529 53.3134 101.288 53.3364C100.619 53.3409 100.307 53.2666 99.7503 52.9558C99.8226 52.8922 99.895 52.8287 99.9695 52.7632Z" fill="#F9D602"/>
<path d="M64.2348 99.7495C64.3795 99.7495 64.5242 99.7495 64.6732 99.7495C64.6732 100.194 64.6732 100.639 64.6732 101.097C64.3115 101.097 63.9498 101.097 63.5771 101.097C63.7941 100.653 64.0112 100.208 64.2348 99.7495Z" fill="#3F3B38"/>
<path d="M94.708 99.1716C94.8526 99.2352 94.9973 99.2987 95.1464 99.3642C95.1464 99.6819 95.1464 99.9997 95.1464 100.327C94.7847 100.454 94.423 100.581 94.0503 100.712C94.4613 99.6049 94.4613 99.6049 94.708 99.1716Z" fill="#3F3B38"/>
<path d="M55.4655 99.3643C55.5379 99.3643 55.6102 99.3643 55.6848 99.3643C55.6848 99.8091 55.6848 100.254 55.6848 100.712C55.323 100.776 54.9613 100.839 54.5886 100.905C54.8352 100.332 55.076 99.8776 55.4655 99.3643Z" fill="#383331"/>
<path d="M112.904 97.0535C113.049 97.117 113.194 97.1806 113.343 97.246C113.48 97.7395 113.48 97.7395 113.562 98.2089C113.2 98.336 112.838 98.4631 112.466 98.594C112.658 97.4867 112.658 97.4867 112.904 97.0535Z" fill="#373331"/>
<path d="M0.219238 89.3508C1.84703 89.5415 1.84703 89.5415 3.50771 89.736C3.50771 89.7995 3.50771 89.8631 3.50771 89.9285C3.11494 89.9337 2.72214 89.9375 2.32934 89.9406C2.11061 89.9428 1.89187 89.945 1.66651 89.9473C1.09616 89.9285 1.09616 89.9285 0.657701 89.736C0.585355 89.9266 0.513008 90.1172 0.43847 90.3137C0.366123 89.9959 0.293777 89.6782 0.219238 89.3508Z" fill="#9A9897"/>
<path d="M146.447 81.0706C146.334 82.0275 146.176 82.8596 145.789 83.7665C145.47 82.8959 145.73 82.3191 146.008 81.4557C145.863 81.3921 145.719 81.3286 145.57 81.2631C146.008 81.0706 146.008 81.0706 146.447 81.0706Z" fill="#777472"/>
<path d="M47.354 57.1923C46.6371 57.5555 45.9867 57.7083 45.1617 57.77C44.9446 57.6429 44.7276 57.5158 44.504 57.3848C45.5544 57.0711 46.2702 56.9601 47.354 57.1923Z" fill="#FAD602"/>
<path d="M68.181 59.6956C68.2533 59.8227 68.3257 59.9497 68.4002 60.0807C68.5449 60.1442 68.6896 60.2078 68.8387 60.2733C68.6216 60.7181 68.4046 61.1629 68.181 61.6212C68.1086 61.6212 68.0363 61.6212 67.9617 61.6212C68.0341 60.9858 68.1064 60.3503 68.181 59.6956Z" fill="#D3DBEE"/>
</g>
<defs>
<clipPath id="clip0_43_360">
<rect width="147.323" height="106.489" fill="white"/>
</clipPath>
</defs>
</svg>
